<?xml version="1.0" encoding="utf-8" standalone="no"?>
<!DOCTYPE svg PUBLIC "-//W3C//DTD SVG 1.1//EN"
  "http://www.w3.org/Graphics/SVG/1.1/DTD/svg11.dtd">
<svg xmlns:xlink="http://www.w3.org/1999/xlink" width="249.204844pt" height="168.743808pt" viewBox="0 0 249.204844 168.743808" xmlns="http://www.w3.org/2000/svg" version="1.1">
 <metadata>
  <rdf:RDF xmlns:dc="http://purl.org/dc/elements/1.1/" xmlns:cc="http://creativecommons.org/ns#" xmlns:rdf="http://www.w3.org/1999/02/22-rdf-syntax-ns#">
   <cc:Work>
    <dc:type rdf:resource="http://purl.org/dc/dcmitype/StillImage"/>
    <dc:date>2026-04-14T14:35:02.220915</dc:date>
    <dc:format>image/svg+xml</dc:format>
    <dc:creator>
     <cc:Agent>
      <dc:title>Matplotlib v3.10.7, https://matplotlib.org/</dc:title>
     </cc:Agent>
    </dc:creator>
   </cc:Work>
  </rdf:RDF>
 </metadata>
 <defs>
  <style type="text/css">*{stroke-linejoin: round; stroke-linecap: butt}</style>
 </defs>
 <g id="figure_1">
  <g id="patch_1">
   <path d="M 0 168.743808 
L 249.204844 168.743808 
L 249.204844 0 
L 0 0 
z
" style="fill: #ffffff"/>
  </g>
  <g id="axes_1">
   <g id="patch_2">
    <path d="M 54.300844 151.26912 
L 242.004844 151.26912 
L 242.004844 12.74112 
L 54.300844 12.74112 
z
" style="fill: #ffffff"/>
   </g>
   <g id="FillBetweenPolyCollection_1">
    <path d="M 111.244215 133.29122 
L 99.741473 133.29122 
L 99.155039 132.231373 
L 98.53956 131.171526 
L 97.896963 130.111678 
L 97.229474 129.051831 
L 96.539589 127.991983 
L 95.830036 126.932136 
L 95.103746 125.872289 
L 94.363815 124.812441 
L 93.613475 123.752594 
L 92.856076 122.692747 
L 92.095062 121.632899 
L 91.333966 120.573052 
L 90.576407 119.513205 
L 89.826096 118.453357 
L 89.086843 117.39351 
L 88.362564 116.333663 
L 87.657291 115.273815 
L 86.975169 114.213968 
L 86.320444 113.15412 
L 85.697434 112.094273 
L 85.11049 111.034426 
L 84.563925 109.974578 
L 84.061935 108.914731 
L 83.6085 107.854884 
L 83.207266 106.795036 
L 82.86143 105.735189 
L 82.57362 104.675342 
L 82.345784 103.615494 
L 82.17911 102.555647 
L 82.073958 101.4958 
L 82.029844 100.435952 
L 82.045456 99.376105 
L 82.118725 98.316258 
L 82.246927 97.25641 
L 82.426834 96.196563 
L 82.654892 95.136715 
L 82.927409 94.076868 
L 83.240756 93.017021 
L 83.591549 91.957173 
L 83.976801 90.897326 
L 84.394034 89.837479 
L 84.841339 88.777631 
L 85.31737 87.717784 
L 85.821286 86.657937 
L 86.352632 85.598089 
L 86.911173 84.538242 
L 87.496698 83.478395 
L 88.108804 82.418547 
L 88.74669 81.3587 
L 89.40897 80.298852 
L 90.09352 79.239005 
L 90.797389 78.179158 
L 91.516769 77.11931 
L 92.247025 76.059463 
L 92.9828 74.999616 
L 93.718178 73.939768 
L 94.446884 72.879921 
L 95.162532 71.820074 
L 95.85887 70.760226 
L 96.530039 69.700379 
L 97.170798 68.640532 
L 97.776721 67.580684 
L 98.34434 66.520837 
L 98.871239 65.46099 
L 99.356082 64.401142 
L 99.798585 63.341295 
L 100.199436 62.281447 
L 100.560166 61.2216 
L 100.882986 60.161753 
L 101.170603 59.101905 
L 101.42603 58.042058 
L 101.652392 56.982211 
L 101.852763 55.922363 
L 102.030016 54.862516 
L 102.186713 53.802669 
L 102.325036 52.742821 
L 102.446754 51.682974 
L 102.553231 50.623127 
L 102.645472 49.563279 
L 102.724193 48.503432 
L 102.789917 47.443585 
L 102.843075 46.383737 
L 102.884124 45.32389 
L 102.913638 44.264042 
L 102.932405 43.204195 
L 102.941488 42.144348 
L 102.942268 41.0845 
L 102.936448 40.024653 
L 102.926039 38.964806 
L 102.913307 37.904958 
L 102.9007 36.845111 
L 102.890754 35.785264 
L 102.885987 34.725416 
L 102.888786 33.665569 
L 102.9013 32.605722 
L 102.925337 31.545874 
L 102.962283 30.486027 
L 103.013037 29.426179 
L 103.077979 28.366332 
L 107.907709 28.366332 
L 107.907709 28.366332 
L 107.972651 29.426179 
L 108.023405 30.486027 
L 108.06035 31.545874 
L 108.084387 32.605722 
L 108.096901 33.665569 
L 108.099701 34.725416 
L 108.094934 35.785264 
L 108.084988 36.845111 
L 108.072381 37.904958 
L 108.059649 38.964806 
L 108.04924 40.024653 
L 108.04342 41.0845 
L 108.044199 42.144348 
L 108.053283 43.204195 
L 108.07205 44.264042 
L 108.101564 45.32389 
L 108.142612 46.383737 
L 108.195771 47.443585 
L 108.261494 48.503432 
L 108.340215 49.563279 
L 108.432457 50.623127 
L 108.538934 51.682974 
L 108.660652 52.742821 
L 108.798974 53.802669 
L 108.955672 54.862516 
L 109.132924 55.922363 
L 109.333295 56.982211 
L 109.559658 58.042058 
L 109.815084 59.101905 
L 110.102701 60.161753 
L 110.425521 61.2216 
L 110.786251 62.281447 
L 111.187103 63.341295 
L 111.629606 64.401142 
L 112.114448 65.46099 
L 112.641347 66.520837 
L 113.208966 67.580684 
L 113.814889 68.640532 
L 114.455649 69.700379 
L 115.126818 70.760226 
L 115.823156 71.820074 
L 116.538803 72.879921 
L 117.26751 73.939768 
L 118.002887 74.999616 
L 118.738663 76.059463 
L 119.468919 77.11931 
L 120.188298 78.179158 
L 120.892168 79.239005 
L 121.576718 80.298852 
L 122.238997 81.3587 
L 122.876884 82.418547 
L 123.48899 83.478395 
L 124.074514 84.538242 
L 124.633055 85.598089 
L 125.164402 86.657937 
L 125.668318 87.717784 
L 126.144349 88.777631 
L 126.591653 89.837479 
L 127.008887 90.897326 
L 127.394139 91.957173 
L 127.744932 93.017021 
L 128.058279 94.076868 
L 128.330796 95.136715 
L 128.558853 96.196563 
L 128.738761 97.25641 
L 128.866963 98.316258 
L 128.940231 99.376105 
L 128.955844 100.435952 
L 128.911729 101.4958 
L 128.806577 102.555647 
L 128.639903 103.615494 
L 128.412068 104.675342 
L 128.124257 105.735189 
L 127.778421 106.795036 
L 127.377187 107.854884 
L 126.923752 108.914731 
L 126.421763 109.974578 
L 125.875198 111.034426 
L 125.288253 112.094273 
L 124.665244 113.15412 
L 124.010518 114.213968 
L 123.328396 115.273815 
L 122.623124 116.333663 
L 121.898845 117.39351 
L 121.159592 118.453357 
L 120.409281 119.513205 
L 119.651722 120.573052 
L 118.890626 121.632899 
L 118.129611 122.692747 
L 117.372212 123.752594 
L 116.621873 124.812441 
L 115.881941 125.872289 
L 115.155651 126.932136 
L 114.446099 127.991983 
L 113.756213 129.051831 
L 113.088724 130.111678 
L 112.446127 131.171526 
L 111.830649 132.231373 
L 111.244215 133.29122 
z
" clip-path="url(#p64ee962eeb)" style="fill: url(#h02f863cd93); fill-opacity: 0.55; stroke: #ba55d3; stroke-opacity: 0.55; stroke-width: 0.8"/>
   </g>
   <g id="FillBetweenPolyCollection_2">
    <defs>
     <path id="m726ae644ea" d="M 196.629375 -41.214886 
L 184.996313 -41.214886 
L 184.577683 -41.831474 
L 184.149774 -42.448061 
L 183.71182 -43.064649 
L 183.262588 -43.681237 
L 182.800433 -44.297824 
L 182.32338 -44.914412 
L 181.829251 -45.530999 
L 181.315806 -46.147587 
L 180.780913 -46.764174 
L 180.222734 -47.380762 
L 179.639898 -47.99735 
L 179.031679 -48.613937 
L 178.398142 -49.230525 
L 177.740273 -49.847112 
L 177.060056 -50.4637 
L 176.360515 -51.080287 
L 175.645709 -51.696875 
L 174.920675 -52.313463 
L 174.191327 -52.93005 
L 173.464318 -53.546638 
L 172.746865 -54.163225 
L 172.046548 -54.779813 
L 171.371098 -55.3964 
L 170.728177 -56.012988 
L 170.125159 -56.629576 
L 169.568932 -57.246163 
L 169.065711 -57.862751 
L 168.620882 -58.479338 
L 168.238875 -59.095926 
L 167.923064 -59.712514 
L 167.675709 -60.329101 
L 167.497925 -60.945689 
L 167.389683 -61.562276 
L 167.349844 -62.178864 
L 167.37622 -62.795451 
L 167.465661 -63.412039 
L 167.614168 -64.028627 
L 167.817022 -64.645214 
L 168.068933 -65.261802 
L 168.364207 -65.878389 
L 168.696914 -66.494977 
L 169.06107 -67.111564 
L 169.450811 -67.728152 
L 169.860565 -68.34474 
L 170.285207 -68.961327 
L 170.720198 -69.577915 
L 171.161695 -70.194502 
L 171.606632 -70.81109 
L 172.052765 -71.427678 
L 172.498679 -72.044265 
L 172.943755 -72.660853 
L 173.388105 -73.27744 
L 173.832466 -73.894028 
L 174.27807 -74.510615 
L 174.72649 -75.127203 
L 175.179474 -75.743791 
L 175.63877 -76.360378 
L 176.10596 -76.976966 
L 176.582303 -77.593553 
L 177.068599 -78.210141 
L 177.565083 -78.826728 
L 178.071349 -79.443316 
L 178.58631 -80.059904 
L 179.108196 -80.676491 
L 179.634589 -81.293079 
L 180.16249 -81.909666 
L 180.688417 -82.526254 
L 181.208529 -83.142842 
L 181.718766 -83.759429 
L 182.215001 -84.376017 
L 182.693195 -84.992604 
L 183.149553 -85.609192 
L 183.580663 -86.225779 
L 183.983622 -86.842367 
L 184.356146 -87.458955 
L 184.696645 -88.075542 
L 185.004277 -88.69213 
L 185.27897 -89.308717 
L 185.521416 -89.925305 
L 185.733034 -90.541892 
L 185.91591 -91.15848 
L 186.07271 -91.775068 
L 186.206581 -92.391655 
L 186.321026 -93.008243 
L 186.419787 -93.62483 
L 186.50671 -94.241418 
L 186.585621 -94.858005 
L 186.660202 -95.474593 
L 186.733887 -96.091181 
L 186.809765 -96.707768 
L 186.890503 -97.324356 
L 186.978294 -97.940943 
L 187.074816 -98.557531 
L 187.181221 -99.174119 
L 187.298138 -99.790706 
L 187.425693 -100.407294 
L 187.563551 -101.023881 
L 187.710963 -101.640469 
L 187.866828 -102.257056 
L 193.758859 -102.257056 
L 193.758859 -102.257056 
L 193.914725 -101.640469 
L 194.062137 -101.023881 
L 194.199995 -100.407294 
L 194.32755 -99.790706 
L 194.444466 -99.174119 
L 194.550872 -98.557531 
L 194.647394 -97.940943 
L 194.735184 -97.324356 
L 194.815923 -96.707768 
L 194.8918 -96.091181 
L 194.965485 -95.474593 
L 195.040067 -94.858005 
L 195.118977 -94.241418 
L 195.205901 -93.62483 
L 195.304662 -93.008243 
L 195.419107 -92.391655 
L 195.552977 -91.775068 
L 195.709778 -91.15848 
L 195.892654 -90.541892 
L 196.104272 -89.925305 
L 196.346718 -89.308717 
L 196.621411 -88.69213 
L 196.929042 -88.075542 
L 197.269541 -87.458955 
L 197.642065 -86.842367 
L 198.045025 -86.225779 
L 198.476134 -85.609192 
L 198.932492 -84.992604 
L 199.410687 -84.376017 
L 199.906922 -83.759429 
L 200.417159 -83.142842 
L 200.937271 -82.526254 
L 201.463198 -81.909666 
L 201.991099 -81.293079 
L 202.517492 -80.676491 
L 203.039378 -80.059904 
L 203.554339 -79.443316 
L 204.060605 -78.826728 
L 204.557089 -78.210141 
L 205.043385 -77.593553 
L 205.519728 -76.976966 
L 205.986918 -76.360378 
L 206.446214 -75.743791 
L 206.899198 -75.127203 
L 207.347618 -74.510615 
L 207.793222 -73.894028 
L 208.237583 -73.27744 
L 208.681933 -72.660853 
L 209.127009 -72.044265 
L 209.572923 -71.427678 
L 210.019056 -70.81109 
L 210.463993 -70.194502 
L 210.90549 -69.577915 
L 211.340481 -68.961327 
L 211.765123 -68.34474 
L 212.174876 -67.728152 
L 212.564618 -67.111564 
L 212.928774 -66.494977 
L 213.261481 -65.878389 
L 213.556754 -65.261802 
L 213.808666 -64.645214 
L 214.011519 -64.028627 
L 214.160026 -63.412039 
L 214.249468 -62.795451 
L 214.275844 -62.178864 
L 214.236005 -61.562276 
L 214.127762 -60.945689 
L 213.949978 -60.329101 
L 213.702624 -59.712514 
L 213.386813 -59.095926 
L 213.004805 -58.479338 
L 212.559977 -57.862751 
L 212.056756 -57.246163 
L 211.500529 -56.629576 
L 210.897511 -56.012988 
L 210.254589 -55.3964 
L 209.579139 -54.779813 
L 208.878823 -54.163225 
L 208.16137 -53.546638 
L 207.434361 -52.93005 
L 206.705013 -52.313463 
L 205.979978 -51.696875 
L 205.265172 -51.080287 
L 204.565631 -50.4637 
L 203.885414 -49.847112 
L 203.227545 -49.230525 
L 202.594009 -48.613937 
L 201.985789 -47.99735 
L 201.402953 -47.380762 
L 200.844774 -46.764174 
L 200.309882 -46.147587 
L 199.796436 -45.530999 
L 199.302307 -44.914412 
L 198.825255 -44.297824 
L 198.3631 -43.681237 
L 197.913868 -43.064649 
L 197.475913 -42.448061 
L 197.048004 -41.831474 
L 196.629375 -41.214886 
z
" style="stroke: #1e90ff; stroke-opacity: 0.45; stroke-width: 0.8"/>
    </defs>
    <g clip-path="url(#p64ee962eeb)">
     <use xlink:href="#m726ae644ea" x="0" y="168.743808" style="fill: #1e90ff; fill-opacity: 0.45; stroke: #1e90ff; stroke-opacity: 0.45; stroke-width: 0.8"/>
    </g>
   </g>
   <g id="line2d_1">
    <path d="M 54.300844 144.972393 
L 242.004844 144.972393 
" clip-path="url(#p64ee962eeb)" style="fill: none; stroke-dasharray: 1.85,0.8; stroke-dashoffset: 0; stroke: #000000; stroke-opacity: 0.5; stroke-width: 0.5"/>
   </g>
   <g id="matplotlib.axis_1">
    <g id="xtick_1">
     <g id="line2d_2"/>
     <g id="text_1">
      <text style="font-size: 7px; font-family: 'Helvetica', 'Arial', 'DejaVu Sans', sans-serif; text-anchor: middle" x="105.492844" y="160.088026" transform="rotate(-0 105.492844 160.088026)">Bayesian</text>
     </g>
    </g>
    <g id="xtick_2">
     <g id="line2d_3"/>
     <g id="text_2">
      <text style="font-size: 7px; font-family: 'Helvetica', 'Arial', 'DejaVu Sans', sans-serif; text-anchor: middle" x="190.812844" y="160.088026" transform="rotate(-0 190.812844 160.088026)">cNF</text>
     </g>
    </g>
   </g>
   <g id="matplotlib.axis_2">
    <g id="ytick_1">
     <g id="line2d_4">
      <path d="M 54.300844 144.972393 
L 242.004844 144.972393 
" clip-path="url(#p64ee962eeb)" style="fill: none; stroke-dasharray: 0.4,0.66; stroke-dashoffset: 0; stroke: #b0b0b0; stroke-opacity: 0.25; stroke-width: 0.4"/>
     </g>
     <g id="line2d_5">
      <defs>
       <path id="m73f421a5a0" d="M 0 0 
L -3 0 
" style="stroke: #000000; stroke-width: 0.6"/>
      </defs>
      <g>
       <use xlink:href="#m73f421a5a0" x="54.300844" y="144.972393" style="stroke: #000000; stroke-width: 0.6"/>
      </g>
     </g>
     <g id="text_3">
      <text style="font-size: 8px; font-family: 'Helvetica', 'Arial', 'DejaVu Sans', sans-serif; text-anchor: end" x="47.800844" y="148.011768" transform="rotate(-0 47.800844 148.011768)">0.00</text>
     </g>
    </g>
    <g id="ytick_2">
     <g id="line2d_6">
      <path d="M 54.300844 113.730316 
L 242.004844 113.730316 
" clip-path="url(#p64ee962eeb)" style="fill: none; stroke-dasharray: 0.4,0.66; stroke-dashoffset: 0; stroke: #b0b0b0; stroke-opacity: 0.25; stroke-width: 0.4"/>
     </g>
     <g id="line2d_7">
      <g>
       <use xlink:href="#m73f421a5a0" x="54.300844" y="113.730316" style="stroke: #000000; stroke-width: 0.6"/>
      </g>
     </g>
     <g id="text_4">
      <text style="font-size: 8px; font-family: 'Helvetica', 'Arial', 'DejaVu Sans', sans-serif; text-anchor: end" x="47.800844" y="116.769691" transform="rotate(-0 47.800844 116.769691)">0.50</text>
     </g>
    </g>
    <g id="ytick_3">
     <g id="line2d_8">
      <path d="M 54.300844 82.488239 
L 242.004844 82.488239 
" clip-path="url(#p64ee962eeb)" style="fill: none; stroke-dasharray: 0.4,0.66; stroke-dashoffset: 0; stroke: #b0b0b0; stroke-opacity: 0.25; stroke-width: 0.4"/>
     </g>
     <g id="line2d_9">
      <g>
       <use xlink:href="#m73f421a5a0" x="54.300844" y="82.488239" style="stroke: #000000; stroke-width: 0.6"/>
      </g>
     </g>
     <g id="text_5">
      <text style="font-size: 8px; font-family: 'Helvetica', 'Arial', 'DejaVu Sans', sans-serif; text-anchor: end" x="47.800844" y="85.527614" transform="rotate(-0 47.800844 85.527614)">1.00</text>
     </g>
    </g>
    <g id="ytick_4">
     <g id="line2d_10">
      <path d="M 54.300844 51.246163 
L 242.004844 51.246163 
" clip-path="url(#p64ee962eeb)" style="fill: none; stroke-dasharray: 0.4,0.66; stroke-dashoffset: 0; stroke: #b0b0b0; stroke-opacity: 0.25; stroke-width: 0.4"/>
     </g>
     <g id="line2d_11">
      <g>
       <use xlink:href="#m73f421a5a0" x="54.300844" y="51.246163" style="stroke: #000000; stroke-width: 0.6"/>
      </g>
     </g>
     <g id="text_6">
      <text style="font-size: 8px; font-family: 'Helvetica', 'Arial', 'DejaVu Sans', sans-serif; text-anchor: end" x="47.800844" y="54.285538" transform="rotate(-0 47.800844 54.285538)">1.50</text>
     </g>
    </g>
    <g id="ytick_5">
     <g id="line2d_12">
      <path d="M 54.300844 20.004086 
L 242.004844 20.004086 
" clip-path="url(#p64ee962eeb)" style="fill: none; stroke-dasharray: 0.4,0.66; stroke-dashoffset: 0; stroke: #b0b0b0; stroke-opacity: 0.25; stroke-width: 0.4"/>
     </g>
     <g id="line2d_13">
      <g>
       <use xlink:href="#m73f421a5a0" x="54.300844" y="20.004086" style="stroke: #000000; stroke-width: 0.6"/>
      </g>
     </g>
     <g id="text_7">
      <text style="font-size: 8px; font-family: 'Helvetica', 'Arial', 'DejaVu Sans', sans-serif; text-anchor: end" x="47.800844" y="23.043461" transform="rotate(-0 47.800844 23.043461)">2.00</text>
     </g>
    </g>
    <g id="text_8">
     <text style="font-size: 9px; font-family: 'Helvetica', 'Arial', 'DejaVu Sans', sans-serif" transform="translate(14.038594 135.617698) rotate(-90)">Average Estimate Error </text>
     <text style="font-size: 9px; font-family: 'Helvetica', 'Arial', 'DejaVu Sans', sans-serif" transform="translate(24.116625 95.320901) rotate(-90)">(MAE)</text>
    </g>
   </g>
   <g id="line2d_14">
    <path d="M 108.297715 124.364847 
L 190.16938 111.260571 
" clip-path="url(#p64ee962eeb)" style="fill: none; stroke: #737373; stroke-opacity: 0.42; stroke-width: 0.7; stroke-linecap: square"/>
   </g>
   <g id="line2d_15">
    <path d="M 104.867057 92.067489 
L 194.218936 104.200986 
" clip-path="url(#p64ee962eeb)" style="fill: none; stroke: #737373; stroke-opacity: 0.42; stroke-width: 0.7; stroke-linecap: square"/>
   </g>
   <g id="line2d_16">
    <path d="M 109.164313 102.871042 
L 192.863238 111.362172 
" clip-path="url(#p64ee962eeb)" style="fill: none; stroke: #737373; stroke-opacity: 0.42; stroke-width: 0.7; stroke-linecap: square"/>
   </g>
   <g id="line2d_17">
    <path d="M 107.513577 133.29122 
L 188.891778 112.974362 
" clip-path="url(#p64ee962eeb)" style="fill: none; stroke: #737373; stroke-opacity: 0.42; stroke-width: 0.7; stroke-linecap: square"/>
   </g>
   <g id="line2d_18">
    <path d="M 101.337869 100.704755 
L 194.214653 109.723657 
" clip-path="url(#p64ee962eeb)" style="fill: none; stroke: #737373; stroke-opacity: 0.42; stroke-width: 0.7; stroke-linecap: square"/>
   </g>
   <g id="line2d_19">
    <path d="M 110.362456 80.135492 
L 193.933143 90.934408 
" clip-path="url(#p64ee962eeb)" style="fill: none; stroke: #737373; stroke-opacity: 0.42; stroke-width: 0.7; stroke-linecap: square"/>
   </g>
   <g id="line2d_20">
    <path d="M 108.166496 96.632389 
L 189.660802 101.21003 
" clip-path="url(#p64ee962eeb)" style="fill: none; stroke: #737373; stroke-opacity: 0.42; stroke-width: 0.7; stroke-linecap: square"/>
   </g>
   <g id="line2d_21">
    <path d="M 108.421685 78.085821 
L 188.645662 95.955692 
" clip-path="url(#p64ee962eeb)" style="fill: none; stroke: #737373; stroke-opacity: 0.42; stroke-width: 0.7; stroke-linecap: square"/>
   </g>
   <g id="line2d_22">
    <path d="M 101.685322 81.595416 
L 192.681306 113.34293 
" clip-path="url(#p64ee962eeb)" style="fill: none; stroke: #737373; stroke-opacity: 0.42; stroke-width: 0.7; stroke-linecap: square"/>
   </g>
   <g id="line2d_23">
    <path d="M 104.984875 109.391822 
L 187.124486 107.090404 
" clip-path="url(#p64ee962eeb)" style="fill: none; stroke: #737373; stroke-opacity: 0.42; stroke-width: 0.7; stroke-linecap: square"/>
   </g>
   <g id="line2d_24">
    <path d="M 104.170022 32.773444 
L 187.740384 93.848478 
" clip-path="url(#p64ee962eeb)" style="fill: none; stroke: #737373; stroke-opacity: 0.42; stroke-width: 0.7; stroke-linecap: square"/>
   </g>
   <g id="line2d_25">
    <path d="M 109.862234 52.380267 
L 185.769022 82.473692 
" clip-path="url(#p64ee962eeb)" style="fill: none; stroke: #737373; stroke-opacity: 0.42; stroke-width: 0.7; stroke-linecap: square"/>
   </g>
   <g id="line2d_26">
    <path d="M 106.965792 96.413752 
L 193.75049 104.001993 
" clip-path="url(#p64ee962eeb)" style="fill: none; stroke: #737373; stroke-opacity: 0.42; stroke-width: 0.7; stroke-linecap: square"/>
   </g>
   <g id="line2d_27">
    <path d="M 108.797406 28.366332 
L 192.500653 102.631253 
" clip-path="url(#p64ee962eeb)" style="fill: none; stroke: #737373; stroke-opacity: 0.42; stroke-width: 0.7; stroke-linecap: square"/>
   </g>
   <g id="line2d_28">
    <path d="M 104.913496 84.09442 
L 192.913409 72.358369 
" clip-path="url(#p64ee962eeb)" style="fill: none; stroke: #737373; stroke-opacity: 0.42; stroke-width: 0.7; stroke-linecap: square"/>
   </g>
   <g id="line2d_29">
    <path d="M 102.700205 81.464744 
L 193.68706 88.486669 
" clip-path="url(#p64ee962eeb)" style="fill: none; stroke: #737373; stroke-opacity: 0.42; stroke-width: 0.7; stroke-linecap: square"/>
   </g>
   <g id="line2d_30">
    <path d="M 106.051705 98.147881 
L 190.392207 97.362753 
" clip-path="url(#p64ee962eeb)" style="fill: none; stroke: #737373; stroke-opacity: 0.42; stroke-width: 0.7; stroke-linecap: square"/>
   </g>
   <g id="line2d_31">
    <path d="M 101.02703 106.952839 
L 191.516644 107.877747 
" clip-path="url(#p64ee962eeb)" style="fill: none; stroke: #737373; stroke-opacity: 0.42; stroke-width: 0.7; stroke-linecap: square"/>
   </g>
   <g id="line2d_32">
    <path d="M 108.847263 72.555748 
L 187.124941 90.767494 
" clip-path="url(#p64ee962eeb)" style="fill: none; stroke: #737373; stroke-opacity: 0.42; stroke-width: 0.7; stroke-linecap: square"/>
   </g>
   <g id="line2d_33">
    <path d="M 106.840877 82.097389 
L 186.866248 66.486751 
" clip-path="url(#p64ee962eeb)" style="fill: none; stroke: #737373; stroke-opacity: 0.42; stroke-width: 0.7; stroke-linecap: square"/>
   </g>
   <g id="line2d_34">
    <path d="M 108.135249 82.400578 
L 192.537021 94.809947 
" clip-path="url(#p64ee962eeb)" style="fill: none; stroke: #737373; stroke-opacity: 0.42; stroke-width: 0.7; stroke-linecap: square"/>
   </g>
   <g id="line2d_35">
    <path d="M 104.003422 93.911991 
L 190.516915 103.27808 
" clip-path="url(#p64ee962eeb)" style="fill: none; stroke: #737373; stroke-opacity: 0.42; stroke-width: 0.7; stroke-linecap: square"/>
   </g>
   <g id="line2d_36">
    <path d="M 110.312038 77.704908 
L 191.480757 87.643759 
" clip-path="url(#p64ee962eeb)" style="fill: none; stroke: #737373; stroke-opacity: 0.42; stroke-width: 0.7; stroke-linecap: square"/>
   </g>
   <g id="line2d_37">
    <path d="M 109.517775 95.842328 
L 193.526008 93.68724 
" clip-path="url(#p64ee962eeb)" style="fill: none; stroke: #737373; stroke-opacity: 0.42; stroke-width: 0.7; stroke-linecap: square"/>
   </g>
   <g id="line2d_38">
    <path d="M 108.343045 85.632606 
L 192.192144 88.232846 
" clip-path="url(#p64ee962eeb)" style="fill: none; stroke: #737373; stroke-opacity: 0.42; stroke-width: 0.7; stroke-linecap: square"/>
   </g>
   <g id="line2d_39">
    <path d="M 102.366433 117.089474 
L 191.361411 123.871256 
" clip-path="url(#p64ee962eeb)" style="fill: none; stroke: #737373; stroke-opacity: 0.42; stroke-width: 0.7; stroke-linecap: square"/>
   </g>
   <g id="line2d_40">
    <path d="M 105.15212 96.881849 
L 191.41903 101.500595 
" clip-path="url(#p64ee962eeb)" style="fill: none; stroke: #737373; stroke-opacity: 0.42; stroke-width: 0.7; stroke-linecap: square"/>
   </g>
   <g id="line2d_41">
    <path d="M 100.822124 102.995877 
L 188.805606 104.664037 
" clip-path="url(#p64ee962eeb)" style="fill: none; stroke: #737373; stroke-opacity: 0.42; stroke-width: 0.7; stroke-linecap: square"/>
   </g>
   <g id="line2d_42">
    <path d="M 101.953321 109.494886 
L 186.009169 111.470443 
" clip-path="url(#p64ee962eeb)" style="fill: none; stroke: #737373; stroke-opacity: 0.42; stroke-width: 0.7; stroke-linecap: square"/>
   </g>
   <g id="line2d_43">
    <path d="M 107.366972 112.384351 
L 190.164931 111.540504 
" clip-path="url(#p64ee962eeb)" style="fill: none; stroke: #737373; stroke-opacity: 0.42; stroke-width: 0.7; stroke-linecap: square"/>
   </g>
   <g id="line2d_44">
    <path d="M 107.998817 113.992004 
L 187.890647 113.627487 
" clip-path="url(#p64ee962eeb)" style="fill: none; stroke: #737373; stroke-opacity: 0.42; stroke-width: 0.7; stroke-linecap: square"/>
   </g>
   <g id="line2d_45">
    <path d="M 110.279395 101.835973 
L 189.876323 106.201356 
" clip-path="url(#p64ee962eeb)" style="fill: none; stroke: #737373; stroke-opacity: 0.42; stroke-width: 0.7; stroke-linecap: square"/>
   </g>
   <g id="line2d_46">
    <path d="M 103.709574 111.280153 
L 194.431126 117.587815 
" clip-path="url(#p64ee962eeb)" style="fill: none; stroke: #737373; stroke-opacity: 0.42; stroke-width: 0.7; stroke-linecap: square"/>
   </g>
   <g id="line2d_47">
    <path d="M 104.166558 97.709978 
L 188.08881 106.779648 
" clip-path="url(#p64ee962eeb)" style="fill: none; stroke: #737373; stroke-opacity: 0.42; stroke-width: 0.7; stroke-linecap: square"/>
   </g>
   <g id="line2d_48">
    <path d="M 105.181144 123.179759 
L 186.290571 124.164614 
" clip-path="url(#p64ee962eeb)" style="fill: none; stroke: #737373; stroke-opacity: 0.42; stroke-width: 0.7; stroke-linecap: square"/>
   </g>
   <g id="line2d_49">
    <path d="M 102.313527 101.737847 
L 188.574565 101.756813 
" clip-path="url(#p64ee962eeb)" style="fill: none; stroke: #737373; stroke-opacity: 0.42; stroke-width: 0.7; stroke-linecap: square"/>
   </g>
   <g id="line2d_50">
    <path d="M 101.703832 111.226144 
L 188.699574 114.024672 
" clip-path="url(#p64ee962eeb)" style="fill: none; stroke: #737373; stroke-opacity: 0.42; stroke-width: 0.7; stroke-linecap: square"/>
   </g>
   <g id="line2d_51">
    <path d="M 105.244101 122.837139 
L 192.47061 123.499621 
" clip-path="url(#p64ee962eeb)" style="fill: none; stroke: #737373; stroke-opacity: 0.42; stroke-width: 0.7; stroke-linecap: square"/>
   </g>
   <g id="line2d_52">
    <path d="M 102.696832 59.027506 
L 191.396762 73.133662 
" clip-path="url(#p64ee962eeb)" style="fill: none; stroke: #737373; stroke-opacity: 0.42; stroke-width: 0.7; stroke-linecap: square"/>
   </g>
   <g id="line2d_53">
    <path d="M 107.231467 120.024789 
L 193.719507 127.528921 
" clip-path="url(#p64ee962eeb)" style="fill: none; stroke: #737373; stroke-opacity: 0.42; stroke-width: 0.7; stroke-linecap: square"/>
   </g>
   <g id="line2d_54">
    <path d="M 105.492844 22.815884 
L 105.492844 19.037847 
L 190.812844 19.037847 
L 190.812844 22.815884 
" clip-path="url(#p64ee962eeb)" style="fill: none; stroke: #000000; stroke-width: 0.8; stroke-linecap: square"/>
   </g>
   <g id="patch_3">
    <path d="M 54.300844 151.26912 
L 54.300844 12.74112 
" style="fill: none; stroke: #000000; stroke-width: 0.6; stroke-linejoin: miter; stroke-linecap: square"/>
   </g>
   <g id="patch_4">
    <path d="M 54.300844 151.26912 
L 242.004844 151.26912 
" style="fill: none; stroke: #000000; stroke-width: 0.6; stroke-linejoin: miter; stroke-linecap: square"/>
   </g>
   <g id="PathCollection_1">
    <defs>
     <path id="m33789ae2ae" d="M 0 1.732051 
C 0.459345 1.732051 0.899939 1.549551 1.224745 1.224745 
C 1.549551 0.899939 1.732051 0.459345 1.732051 0 
C 1.732051 -0.459345 1.549551 -0.899939 1.224745 -1.224745 
C 0.899939 -1.549551 0.459345 -1.732051 0 -1.732051 
C -0.459345 -1.732051 -0.899939 -1.549551 -1.224745 -1.224745 
C -1.549551 -0.899939 -1.732051 -0.459345 -1.732051 0 
C -1.732051 0.459345 -1.549551 0.899939 -1.224745 1.224745 
C -0.899939 1.549551 -0.459345 1.732051 0 1.732051 
z
"/>
    </defs>
    <g clip-path="url(#p64ee962eeb)">
     <use xlink:href="#m33789ae2ae" x="108.297715" y="124.364847" style="fill: #ba55d3; fill-opacity: 0.6"/>
     <use xlink:href="#m33789ae2ae" x="104.867057" y="92.067489" style="fill: #ba55d3; fill-opacity: 0.6"/>
     <use xlink:href="#m33789ae2ae" x="109.164313" y="102.871042" style="fill: #ba55d3; fill-opacity: 0.6"/>
     <use xlink:href="#m33789ae2ae" x="107.513577" y="133.29122" style="fill: #ba55d3; fill-opacity: 0.6"/>
     <use xlink:href="#m33789ae2ae" x="101.337869" y="100.704755" style="fill: #ba55d3; fill-opacity: 0.6"/>
     <use xlink:href="#m33789ae2ae" x="110.362456" y="80.135492" style="fill: #ba55d3; fill-opacity: 0.6"/>
     <use xlink:href="#m33789ae2ae" x="108.166496" y="96.632389" style="fill: #ba55d3; fill-opacity: 0.6"/>
     <use xlink:href="#m33789ae2ae" x="108.421685" y="78.085821" style="fill: #ba55d3; fill-opacity: 0.6"/>
     <use xlink:href="#m33789ae2ae" x="101.685322" y="81.595416" style="fill: #ba55d3; fill-opacity: 0.6"/>
     <use xlink:href="#m33789ae2ae" x="104.984875" y="109.391822" style="fill: #ba55d3; fill-opacity: 0.6"/>
     <use xlink:href="#m33789ae2ae" x="104.170022" y="32.773444" style="fill: #ba55d3; fill-opacity: 0.6"/>
     <use xlink:href="#m33789ae2ae" x="109.862234" y="52.380267" style="fill: #ba55d3; fill-opacity: 0.6"/>
     <use xlink:href="#m33789ae2ae" x="106.965792" y="96.413752" style="fill: #ba55d3; fill-opacity: 0.6"/>
     <use xlink:href="#m33789ae2ae" x="108.797406" y="28.366332" style="fill: #ba55d3; fill-opacity: 0.6"/>
     <use xlink:href="#m33789ae2ae" x="104.913496" y="84.09442" style="fill: #ba55d3; fill-opacity: 0.6"/>
     <use xlink:href="#m33789ae2ae" x="102.700205" y="81.464744" style="fill: #ba55d3; fill-opacity: 0.6"/>
     <use xlink:href="#m33789ae2ae" x="106.051705" y="98.147881" style="fill: #ba55d3; fill-opacity: 0.6"/>
     <use xlink:href="#m33789ae2ae" x="101.02703" y="106.952839" style="fill: #ba55d3; fill-opacity: 0.6"/>
     <use xlink:href="#m33789ae2ae" x="108.847263" y="72.555748" style="fill: #ba55d3; fill-opacity: 0.6"/>
     <use xlink:href="#m33789ae2ae" x="106.840877" y="82.097389" style="fill: #ba55d3; fill-opacity: 0.6"/>
     <use xlink:href="#m33789ae2ae" x="108.135249" y="82.400578" style="fill: #ba55d3; fill-opacity: 0.6"/>
     <use xlink:href="#m33789ae2ae" x="104.003422" y="93.911991" style="fill: #ba55d3; fill-opacity: 0.6"/>
     <use xlink:href="#m33789ae2ae" x="110.312038" y="77.704908" style="fill: #ba55d3; fill-opacity: 0.6"/>
     <use xlink:href="#m33789ae2ae" x="109.517775" y="95.842328" style="fill: #ba55d3; fill-opacity: 0.6"/>
     <use xlink:href="#m33789ae2ae" x="108.343045" y="85.632606" style="fill: #ba55d3; fill-opacity: 0.6"/>
     <use xlink:href="#m33789ae2ae" x="102.366433" y="117.089474" style="fill: #ba55d3; fill-opacity: 0.6"/>
     <use xlink:href="#m33789ae2ae" x="105.15212" y="96.881849" style="fill: #ba55d3; fill-opacity: 0.6"/>
     <use xlink:href="#m33789ae2ae" x="100.822124" y="102.995877" style="fill: #ba55d3; fill-opacity: 0.6"/>
     <use xlink:href="#m33789ae2ae" x="101.953321" y="109.494886" style="fill: #ba55d3; fill-opacity: 0.6"/>
     <use xlink:href="#m33789ae2ae" x="107.366972" y="112.384351" style="fill: #ba55d3; fill-opacity: 0.6"/>
     <use xlink:href="#m33789ae2ae" x="107.998817" y="113.992004" style="fill: #ba55d3; fill-opacity: 0.6"/>
     <use xlink:href="#m33789ae2ae" x="110.279395" y="101.835973" style="fill: #ba55d3; fill-opacity: 0.6"/>
     <use xlink:href="#m33789ae2ae" x="103.709574" y="111.280153" style="fill: #ba55d3; fill-opacity: 0.6"/>
     <use xlink:href="#m33789ae2ae" x="104.166558" y="97.709978" style="fill: #ba55d3; fill-opacity: 0.6"/>
     <use xlink:href="#m33789ae2ae" x="105.181144" y="123.179759" style="fill: #ba55d3; fill-opacity: 0.6"/>
     <use xlink:href="#m33789ae2ae" x="102.313527" y="101.737847" style="fill: #ba55d3; fill-opacity: 0.6"/>
     <use xlink:href="#m33789ae2ae" x="101.703832" y="111.226144" style="fill: #ba55d3; fill-opacity: 0.6"/>
     <use xlink:href="#m33789ae2ae" x="105.244101" y="122.837139" style="fill: #ba55d3; fill-opacity: 0.6"/>
     <use xlink:href="#m33789ae2ae" x="102.696832" y="59.027506" style="fill: #ba55d3; fill-opacity: 0.6"/>
     <use xlink:href="#m33789ae2ae" x="107.231467" y="120.024789" style="fill: #ba55d3; fill-opacity: 0.6"/>
    </g>
   </g>
   <g id="PathCollection_2">
    <defs>
     <path id="m5cf57248e9" d="M 0 1.732051 
C 0.459345 1.732051 0.899939 1.549551 1.224745 1.224745 
C 1.549551 0.899939 1.732051 0.459345 1.732051 0 
C 1.732051 -0.459345 1.549551 -0.899939 1.224745 -1.224745 
C 0.899939 -1.549551 0.459345 -1.732051 0 -1.732051 
C -0.459345 -1.732051 -0.899939 -1.549551 -1.224745 -1.224745 
C -1.549551 -0.899939 -1.732051 -0.459345 -1.732051 0 
C -1.732051 0.459345 -1.549551 0.899939 -1.224745 1.224745 
C -0.899939 1.549551 -0.459345 1.732051 0 1.732051 
z
"/>
    </defs>
    <g clip-path="url(#p64ee962eeb)">
     <use xlink:href="#m5cf57248e9" x="190.16938" y="111.260571" style="fill: #1e90ff; fill-opacity: 0.6"/>
     <use xlink:href="#m5cf57248e9" x="194.218936" y="104.200986" style="fill: #1e90ff; fill-opacity: 0.6"/>
     <use xlink:href="#m5cf57248e9" x="192.863238" y="111.362172" style="fill: #1e90ff; fill-opacity: 0.6"/>
     <use xlink:href="#m5cf57248e9" x="188.891778" y="112.974362" style="fill: #1e90ff; fill-opacity: 0.6"/>
     <use xlink:href="#m5cf57248e9" x="194.214653" y="109.723657" style="fill: #1e90ff; fill-opacity: 0.6"/>
     <use xlink:href="#m5cf57248e9" x="193.933143" y="90.934408" style="fill: #1e90ff; fill-opacity: 0.6"/>
     <use xlink:href="#m5cf57248e9" x="189.660802" y="101.21003" style="fill: #1e90ff; fill-opacity: 0.6"/>
     <use xlink:href="#m5cf57248e9" x="188.645662" y="95.955692" style="fill: #1e90ff; fill-opacity: 0.6"/>
     <use xlink:href="#m5cf57248e9" x="192.681306" y="113.34293" style="fill: #1e90ff; fill-opacity: 0.6"/>
     <use xlink:href="#m5cf57248e9" x="187.124486" y="107.090404" style="fill: #1e90ff; fill-opacity: 0.6"/>
     <use xlink:href="#m5cf57248e9" x="187.740384" y="93.848478" style="fill: #1e90ff; fill-opacity: 0.6"/>
     <use xlink:href="#m5cf57248e9" x="185.769022" y="82.473692" style="fill: #1e90ff; fill-opacity: 0.6"/>
     <use xlink:href="#m5cf57248e9" x="193.75049" y="104.001993" style="fill: #1e90ff; fill-opacity: 0.6"/>
     <use xlink:href="#m5cf57248e9" x="192.500653" y="102.631253" style="fill: #1e90ff; fill-opacity: 0.6"/>
     <use xlink:href="#m5cf57248e9" x="192.913409" y="72.358369" style="fill: #1e90ff; fill-opacity: 0.6"/>
     <use xlink:href="#m5cf57248e9" x="193.68706" y="88.486669" style="fill: #1e90ff; fill-opacity: 0.6"/>
     <use xlink:href="#m5cf57248e9" x="190.392207" y="97.362753" style="fill: #1e90ff; fill-opacity: 0.6"/>
     <use xlink:href="#m5cf57248e9" x="191.516644" y="107.877747" style="fill: #1e90ff; fill-opacity: 0.6"/>
     <use xlink:href="#m5cf57248e9" x="187.124941" y="90.767494" style="fill: #1e90ff; fill-opacity: 0.6"/>
     <use xlink:href="#m5cf57248e9" x="186.866248" y="66.486751" style="fill: #1e90ff; fill-opacity: 0.6"/>
     <use xlink:href="#m5cf57248e9" x="192.537021" y="94.809947" style="fill: #1e90ff; fill-opacity: 0.6"/>
     <use xlink:href="#m5cf57248e9" x="190.516915" y="103.27808" style="fill: #1e90ff; fill-opacity: 0.6"/>
     <use xlink:href="#m5cf57248e9" x="191.480757" y="87.643759" style="fill: #1e90ff; fill-opacity: 0.6"/>
     <use xlink:href="#m5cf57248e9" x="193.526008" y="93.68724" style="fill: #1e90ff; fill-opacity: 0.6"/>
     <use xlink:href="#m5cf57248e9" x="192.192144" y="88.232846" style="fill: #1e90ff; fill-opacity: 0.6"/>
     <use xlink:href="#m5cf57248e9" x="191.361411" y="123.871256" style="fill: #1e90ff; fill-opacity: 0.6"/>
     <use xlink:href="#m5cf57248e9" x="191.41903" y="101.500595" style="fill: #1e90ff; fill-opacity: 0.6"/>
     <use xlink:href="#m5cf57248e9" x="188.805606" y="104.664037" style="fill: #1e90ff; fill-opacity: 0.6"/>
     <use xlink:href="#m5cf57248e9" x="186.009169" y="111.470443" style="fill: #1e90ff; fill-opacity: 0.6"/>
     <use xlink:href="#m5cf57248e9" x="190.164931" y="111.540504" style="fill: #1e90ff; fill-opacity: 0.6"/>
     <use xlink:href="#m5cf57248e9" x="187.890647" y="113.627487" style="fill: #1e90ff; fill-opacity: 0.6"/>
     <use xlink:href="#m5cf57248e9" x="189.876323" y="106.201356" style="fill: #1e90ff; fill-opacity: 0.6"/>
     <use xlink:href="#m5cf57248e9" x="194.431126" y="117.587815" style="fill: #1e90ff; fill-opacity: 0.6"/>
     <use xlink:href="#m5cf57248e9" x="188.08881" y="106.779648" style="fill: #1e90ff; fill-opacity: 0.6"/>
     <use xlink:href="#m5cf57248e9" x="186.290571" y="124.164614" style="fill: #1e90ff; fill-opacity: 0.6"/>
     <use xlink:href="#m5cf57248e9" x="188.574565" y="101.756813" style="fill: #1e90ff; fill-opacity: 0.6"/>
     <use xlink:href="#m5cf57248e9" x="188.699574" y="114.024672" style="fill: #1e90ff; fill-opacity: 0.6"/>
     <use xlink:href="#m5cf57248e9" x="192.47061" y="123.499621" style="fill: #1e90ff; fill-opacity: 0.6"/>
     <use xlink:href="#m5cf57248e9" x="191.396762" y="73.133662" style="fill: #1e90ff; fill-opacity: 0.6"/>
     <use xlink:href="#m5cf57248e9" x="193.719507" y="127.528921" style="fill: #1e90ff; fill-opacity: 0.6"/>
    </g>
   </g>
   <g id="text_9">
    <text style="font-size: 7.5px; font-family: 'Helvetica', 'Arial', 'DejaVu Sans', sans-serif; text-anchor: middle" x="148.152844" y="16.218736" transform="rotate(-0 148.152844 16.218736)">p = 0.005 **</text>
   </g>
   <g id="text_10">
    <text style="font-weight: 700; font-size: 10px; font-family: 'Helvetica', 'Arial', 'DejaVu Sans', sans-serif; text-anchor: start" x="13.005964" y="14.798438" transform="rotate(-0 13.005964 14.798438)">A</text>
   </g>
   <g id="line2d_55">
    <path d="M 105.492844 109.927701 
L 105.492844 81.971896 
" clip-path="url(#p64ee962eeb)" style="fill: none; stroke: #ba55d3; stroke-width: 2.2; stroke-linecap: round"/>
   </g>
   <g id="line2d_56">
    <path d="M 190.812844 111.487958 
L 190.812844 93.808168 
" clip-path="url(#p64ee962eeb)" style="fill: none; stroke: #1e90ff; stroke-width: 2.2; stroke-linecap: round"/>
   </g>
   <g id="PathCollection_3">
    <defs>
     <path id="m1fe41d283a" d="M 0 2.12132 
C 0.562581 2.12132 1.102195 1.897805 1.5 1.5 
C 1.897805 1.102195 2.12132 0.562581 2.12132 0 
C 2.12132 -0.562581 1.897805 -1.102195 1.5 -1.5 
C 1.102195 -1.897805 0.562581 -2.12132 0 -2.12132 
C -0.562581 -2.12132 -1.102195 -1.897805 -1.5 -1.5 
C -1.897805 -1.102195 -2.12132 -0.562581 -2.12132 0 
C -2.12132 0.562581 -1.897805 1.102195 -1.5 1.5 
C -1.102195 1.897805 -0.562581 2.12132 0 2.12132 
z
" style="stroke: #ba55d3; stroke-width: 0.8"/>
    </defs>
    <g clip-path="url(#p64ee962eeb)">
     <use xlink:href="#m1fe41d283a" x="105.492844" y="97.295914" style="fill: #ffffff; stroke: #ba55d3; stroke-width: 0.8"/>
    </g>
   </g>
   <g id="PathCollection_4">
    <defs>
     <path id="mfcd9723d53" d="M 0 2.12132 
C 0.562581 2.12132 1.102195 1.897805 1.5 1.5 
C 1.897805 1.102195 2.12132 0.562581 2.12132 0 
C 2.12132 -0.562581 1.897805 -1.102195 1.5 -1.5 
C 1.102195 -1.897805 0.562581 -2.12132 0 -2.12132 
C -0.562581 -2.12132 -1.102195 -1.897805 -1.5 -1.5 
C -1.897805 -1.102195 -2.12132 -0.562581 -2.12132 0 
C -2.12132 0.562581 -1.897805 1.102195 -1.5 1.5 
C -1.102195 1.897805 -0.562581 2.12132 0 2.12132 
z
" style="stroke: #1e90ff; stroke-width: 0.8"/>
    </defs>
    <g clip-path="url(#p64ee962eeb)">
     <use xlink:href="#mfcd9723d53" x="190.812844" y="104.10149" style="fill: #ffffff; stroke: #1e90ff; stroke-width: 0.8"/>
    </g>
   </g>
  </g>
 </g>
 <defs>
  <clipPath id="p64ee962eeb">
   <rect x="54.300844" y="12.74112" width="187.704" height="138.528"/>
  </clipPath>
 </defs>
 <defs>
  <pattern id="h02f863cd93" patternUnits="userSpaceOnUse" x="0" y="0" width="72" height="72">
   <rect x="0" y="0" width="73" height="73" fill="#ba55d3"/>
   <path d="M -36 36 
L 36 -36 
M -33 39 
L 39 -33 
M -30 42 
L 42 -30 
M -27 45 
L 45 -27 
M -24 48 
L 48 -24 
M -21 51 
L 51 -21 
M -18 54 
L 54 -18 
M -15 57 
L 57 -15 
M -12 60 
L 60 -12 
M -9 63 
L 63 -9 
M -6 66 
L 66 -6 
M -3 69 
L 69 -3 
M 0 72 
L 72 0 
M 3 75 
L 75 3 
M 6 78 
L 78 6 
M 9 81 
L 81 9 
M 12 84 
L 84 12 
M 15 87 
L 87 15 
M 18 90 
L 90 18 
M 21 93 
L 93 21 
M 24 96 
L 96 24 
M 27 99 
L 99 27 
M 30 102 
L 102 30 
M 33 105 
L 105 33 
M 36 108 
L 108 36 
" style="fill: #ba55d3; stroke: #ba55d3; stroke-width: 1.0; stroke-linecap: butt; stroke-linejoin: miter; stroke-opacity: 0.55"/>
  </pattern>
 </defs>
</svg>
