<?xml version="1.0" encoding="utf-8" standalone="no"?>
<!DOCTYPE svg PUBLIC "-//W3C//DTD SVG 1.1//EN"
  "http://www.w3.org/Graphics/SVG/1.1/DTD/svg11.dtd">
<svg xmlns:xlink="http://www.w3.org/1999/xlink" width="249.204844pt" height="168.743808pt" viewBox="0 0 249.204844 168.743808" xmlns="http://www.w3.org/2000/svg" version="1.1">
 <metadata>
  <rdf:RDF xmlns:dc="http://purl.org/dc/elements/1.1/" xmlns:cc="http://creativecommons.org/ns#" xmlns:rdf="http://www.w3.org/1999/02/22-rdf-syntax-ns#">
   <cc:Work>
    <dc:type rdf:resource="http://purl.org/dc/dcmitype/StillImage"/>
    <dc:date>2026-05-27T14:12:56.858842</dc:date>
    <dc:format>image/svg+xml</dc:format>
    <dc:creator>
     <cc:Agent>
      <dc:title>Matplotlib v3.10.7, https://matplotlib.org/</dc:title>
     </cc:Agent>
    </dc:creator>
   </cc:Work>
  </rdf:RDF>
 </metadata>
 <defs>
  <style type="text/css">*{stroke-linejoin: round; stroke-linecap: butt}</style>
 </defs>
 <g id="figure_1">
  <g id="patch_1">
   <path d="M 0 168.743808 
L 249.204844 168.743808 
L 249.204844 0 
L 0 0 
z
" style="fill: #ffffff"/>
  </g>
  <g id="axes_1">
   <g id="patch_2">
    <path d="M 54.300844 151.26912 
L 242.004844 151.26912 
L 242.004844 12.74112 
L 54.300844 12.74112 
z
" style="fill: #ffffff"/>
   </g>
   <g id="FillBetweenPolyCollection_1">
    <path d="M 111.676377 133.29122 
L 99.309311 133.29122 
L 98.693443 132.231373 
L 98.047434 131.171526 
L 97.373175 130.111678 
L 96.672883 129.051831 
L 95.94908 127.991983 
L 95.204579 126.932136 
L 94.442468 125.872289 
L 93.666095 124.812441 
L 92.879061 123.752594 
L 92.085204 122.692747 
L 91.288604 121.632899 
L 90.493576 120.573052 
L 89.704665 119.513205 
L 88.926648 118.453357 
L 88.164517 117.39351 
L 87.423466 116.333663 
L 86.708857 115.273815 
L 86.026173 114.213968 
L 85.380952 113.15412 
L 84.778705 112.094273 
L 84.224809 111.034426 
L 83.724385 109.974578 
L 83.282161 108.914731 
L 82.902326 107.854884 
L 82.588378 106.795036 
L 82.342984 105.735189 
L 82.167854 104.675342 
L 82.063634 103.615494 
L 82.029844 102.555647 
L 82.064844 101.4958 
L 82.165864 100.435952 
L 82.329068 99.376105 
L 82.549678 98.316258 
L 82.822144 97.25641 
L 83.140348 96.196563 
L 83.497842 95.136715 
L 83.888101 94.076868 
L 84.304777 93.017021 
L 84.741938 91.957173 
L 85.194287 90.897326 
L 85.657328 89.837479 
L 86.12749 88.777631 
L 86.602187 87.717784 
L 87.079821 86.657937 
L 87.559721 85.598089 
L 88.042025 84.538242 
L 88.52752 83.478395 
L 89.017449 82.418547 
L 89.513291 81.3587 
L 90.016546 80.298852 
L 90.528521 79.239005 
L 91.05015 78.179158 
L 91.581838 77.11931 
L 92.123362 76.059463 
L 92.673811 74.999616 
L 93.231586 73.939768 
L 93.794437 72.879921 
L 94.359554 71.820074 
L 94.92369 70.760226 
L 95.483302 69.700379 
L 96.034714 68.640532 
L 96.574277 67.580684 
L 97.098521 66.520837 
L 97.604287 65.46099 
L 98.088835 64.401142 
L 98.549917 63.341295 
L 98.985822 62.281447 
L 99.395377 61.2216 
L 99.777931 60.161753 
L 100.133298 59.101905 
L 100.461692 58.042058 
L 100.763642 56.982211 
L 101.039905 55.922363 
L 101.291384 54.862516 
L 101.519053 53.802669 
L 101.723898 52.742821 
L 101.906878 51.682974 
L 102.068905 50.623127 
L 102.210849 49.563279 
L 102.333557 48.503432 
L 102.437888 47.443585 
L 102.524762 46.383737 
L 102.595209 45.32389 
L 102.650419 44.264042 
L 102.691781 43.204195 
L 102.720916 42.144348 
L 102.739687 41.0845 
L 102.75019 40.024653 
L 102.754731 38.964806 
L 102.755772 37.904958 
L 102.755873 36.845111 
L 102.757607 35.785264 
L 102.763477 34.725416 
L 102.77582 33.665569 
L 102.796724 32.605722 
L 102.827942 31.545874 
L 102.870828 30.486027 
L 102.926287 29.426179 
L 102.994744 28.366332 
L 107.990943 28.366332 
L 107.990943 28.366332 
L 108.0594 29.426179 
L 108.114859 30.486027 
L 108.157745 31.545874 
L 108.188964 32.605722 
L 108.209867 33.665569 
L 108.222211 34.725416 
L 108.22808 35.785264 
L 108.229814 36.845111 
L 108.229915 37.904958 
L 108.230957 38.964806 
L 108.235497 40.024653 
L 108.246001 41.0845 
L 108.264771 42.144348 
L 108.293907 43.204195 
L 108.335269 44.264042 
L 108.390478 45.32389 
L 108.460926 46.383737 
L 108.5478 47.443585 
L 108.652131 48.503432 
L 108.774839 49.563279 
L 108.916783 50.623127 
L 109.07881 51.682974 
L 109.261789 52.742821 
L 109.466634 53.802669 
L 109.694303 54.862516 
L 109.945783 55.922363 
L 110.222046 56.982211 
L 110.523996 58.042058 
L 110.85239 59.101905 
L 111.207757 60.161753 
L 111.59031 61.2216 
L 111.999866 62.281447 
L 112.43577 63.341295 
L 112.896852 64.401142 
L 113.3814 65.46099 
L 113.887166 66.520837 
L 114.41141 67.580684 
L 114.950973 68.640532 
L 115.502385 69.700379 
L 116.061997 70.760226 
L 116.626133 71.820074 
L 117.191251 72.879921 
L 117.754102 73.939768 
L 118.311876 74.999616 
L 118.862326 76.059463 
L 119.40385 77.11931 
L 119.935538 78.179158 
L 120.457166 79.239005 
L 120.969142 80.298852 
L 121.472397 81.3587 
L 121.968239 82.418547 
L 122.458168 83.478395 
L 122.943663 84.538242 
L 123.425966 85.598089 
L 123.905866 86.657937 
L 124.383501 87.717784 
L 124.858198 88.777631 
L 125.328359 89.837479 
L 125.7914 90.897326 
L 126.243749 91.957173 
L 126.680911 93.017021 
L 127.097586 94.076868 
L 127.487845 95.136715 
L 127.84534 96.196563 
L 128.163544 97.25641 
L 128.436009 98.316258 
L 128.65662 99.376105 
L 128.819823 100.435952 
L 128.920843 101.4958 
L 128.955844 102.555647 
L 128.922053 103.615494 
L 128.817833 104.675342 
L 128.642703 105.735189 
L 128.39731 106.795036 
L 128.083362 107.854884 
L 127.703526 108.914731 
L 127.261303 109.974578 
L 126.760879 111.034426 
L 126.206983 112.094273 
L 125.604735 113.15412 
L 124.959514 114.213968 
L 124.27683 115.273815 
L 123.562221 116.333663 
L 122.821171 117.39351 
L 122.05904 118.453357 
L 121.281022 119.513205 
L 120.492112 120.573052 
L 119.697083 121.632899 
L 118.900483 122.692747 
L 118.106627 123.752594 
L 117.319592 124.812441 
L 116.54322 125.872289 
L 115.781109 126.932136 
L 115.036608 127.991983 
L 114.312805 129.051831 
L 113.612512 130.111678 
L 112.938253 131.171526 
L 112.292244 132.231373 
L 111.676377 133.29122 
z
" clip-path="url(#p37257dcb4f)" style="fill: url(#h1799dd9996); fill-opacity: 0.55; stroke: #ba55d3; stroke-opacity: 0.55; stroke-width: 0.8"/>
   </g>
   <g id="FillBetweenPolyCollection_2">
    <defs>
     <path id="mfe0d0ea1b2" d="M 196.297573 -41.214886 
L 185.328115 -41.214886 
L 184.92586 -41.831474 
L 184.5128 -42.448061 
L 184.087861 -43.064649 
L 183.649507 -43.681237 
L 183.195789 -44.297824 
L 182.724444 -44.914412 
L 182.233016 -45.530999 
L 181.719013 -46.147587 
L 181.180081 -46.764174 
L 180.614195 -47.380762 
L 180.019846 -47.99735 
L 179.396225 -48.613937 
L 178.743384 -49.230525 
L 178.062369 -49.847112 
L 177.355312 -50.4637 
L 176.625483 -51.080287 
L 175.877285 -51.696875 
L 175.116211 -52.313463 
L 174.348744 -52.93005 
L 173.58222 -53.546638 
L 172.82465 -54.163225 
L 172.084522 -54.779813 
L 171.370576 -55.3964 
L 170.69158 -56.012988 
L 170.056101 -56.629576 
L 169.472291 -57.246163 
L 168.94769 -57.862751 
L 168.489044 -58.479338 
L 168.102166 -59.095926 
L 167.791808 -59.712514 
L 167.561576 -60.329101 
L 167.413869 -60.945689 
L 167.349844 -61.562276 
L 167.369413 -62.178864 
L 167.471264 -62.795451 
L 167.652898 -63.412039 
L 167.910702 -64.028627 
L 168.240033 -64.645214 
L 168.63533 -65.261802 
L 169.090239 -65.878389 
L 169.597762 -66.494977 
L 170.150423 -67.111564 
L 170.740438 -67.728152 
L 171.359908 -68.34474 
L 172.000999 -68.961327 
L 172.656133 -69.577915 
L 173.318163 -70.194502 
L 173.980531 -70.81109 
L 174.637402 -71.427678 
L 175.283775 -72.044265 
L 175.915549 -72.660853 
L 176.529563 -73.27744 
L 177.123584 -73.894028 
L 177.696272 -74.510615 
L 178.247094 -75.127203 
L 178.776223 -75.743791 
L 179.284401 -76.360378 
L 179.772794 -76.976966 
L 180.242832 -77.593553 
L 180.69606 -78.210141 
L 181.133987 -78.826728 
L 181.55796 -79.443316 
L 181.969055 -80.059904 
L 182.368003 -80.676491 
L 182.755135 -81.293079 
L 183.130369 -81.909666 
L 183.493224 -82.526254 
L 183.842855 -83.142842 
L 184.178125 -83.759429 
L 184.497684 -84.376017 
L 184.800071 -84.992604 
L 185.08382 -85.609192 
L 185.347561 -86.225779 
L 185.590131 -86.842367 
L 185.810659 -87.458955 
L 186.008648 -88.075542 
L 186.184034 -88.69213 
L 186.337221 -89.308717 
L 186.469099 -89.925305 
L 186.581036 -90.541892 
L 186.674848 -91.15848 
L 186.752749 -91.775068 
L 186.817285 -92.391655 
L 186.871249 -93.008243 
L 186.91759 -93.62483 
L 186.959319 -94.241418 
L 186.999409 -94.858005 
L 187.040699 -95.474593 
L 187.085807 -96.091181 
L 187.137055 -96.707768 
L 187.196407 -97.324356 
L 187.265418 -97.940943 
L 187.345209 -98.557531 
L 187.436452 -99.174119 
L 187.539372 -99.790706 
L 187.653772 -100.407294 
L 187.779059 -101.023881 
L 187.914296 -101.640469 
L 188.058247 -102.257056 
L 193.56744 -102.257056 
L 193.56744 -102.257056 
L 193.711392 -101.640469 
L 193.846628 -101.023881 
L 193.971916 -100.407294 
L 194.086315 -99.790706 
L 194.189236 -99.174119 
L 194.280478 -98.557531 
L 194.360269 -97.940943 
L 194.42928 -97.324356 
L 194.488632 -96.707768 
L 194.539881 -96.091181 
L 194.584989 -95.474593 
L 194.626278 -94.858005 
L 194.666368 -94.241418 
L 194.708098 -93.62483 
L 194.754439 -93.008243 
L 194.808402 -92.391655 
L 194.872938 -91.775068 
L 194.95084 -91.15848 
L 195.044652 -90.541892 
L 195.156589 -89.925305 
L 195.288467 -89.308717 
L 195.441653 -88.69213 
L 195.617039 -88.075542 
L 195.815029 -87.458955 
L 196.035557 -86.842367 
L 196.278127 -86.225779 
L 196.541868 -85.609192 
L 196.825616 -84.992604 
L 197.128004 -84.376017 
L 197.447563 -83.759429 
L 197.782832 -83.142842 
L 198.132464 -82.526254 
L 198.495318 -81.909666 
L 198.870553 -81.293079 
L 199.257685 -80.676491 
L 199.656632 -80.059904 
L 200.067728 -79.443316 
L 200.4917 -78.826728 
L 200.929627 -78.210141 
L 201.382855 -77.593553 
L 201.852894 -76.976966 
L 202.341287 -76.360378 
L 202.849465 -75.743791 
L 203.378594 -75.127203 
L 203.929416 -74.510615 
L 204.502103 -73.894028 
L 205.096124 -73.27744 
L 205.710138 -72.660853 
L 206.341913 -72.044265 
L 206.988286 -71.427678 
L 207.645157 -70.81109 
L 208.307524 -70.194502 
L 208.969554 -69.577915 
L 209.624689 -68.961327 
L 210.26578 -68.34474 
L 210.885249 -67.728152 
L 211.475265 -67.111564 
L 212.027926 -66.494977 
L 212.535449 -65.878389 
L 212.990358 -65.261802 
L 213.385654 -64.645214 
L 213.714986 -64.028627 
L 213.97279 -63.412039 
L 214.154424 -62.795451 
L 214.256274 -62.178864 
L 214.275844 -61.562276 
L 214.211819 -60.945689 
L 214.064111 -60.329101 
L 213.83388 -59.712514 
L 213.523521 -59.095926 
L 213.136643 -58.479338 
L 212.677998 -57.862751 
L 212.153396 -57.246163 
L 211.569587 -56.629576 
L 210.934108 -56.012988 
L 210.255112 -55.3964 
L 209.541166 -54.779813 
L 208.801037 -54.163225 
L 208.043468 -53.546638 
L 207.276944 -52.93005 
L 206.509477 -52.313463 
L 205.748403 -51.696875 
L 205.000205 -51.080287 
L 204.270375 -50.4637 
L 203.563318 -49.847112 
L 202.882303 -49.230525 
L 202.229462 -48.613937 
L 201.605841 -47.99735 
L 201.011492 -47.380762 
L 200.445606 -46.764174 
L 199.906675 -46.147587 
L 199.392672 -45.530999 
L 198.901244 -44.914412 
L 198.429899 -44.297824 
L 197.976181 -43.681237 
L 197.537827 -43.064649 
L 197.112888 -42.448061 
L 196.699827 -41.831474 
L 196.297573 -41.214886 
z
" style="stroke: #1e90ff; stroke-opacity: 0.45; stroke-width: 0.8"/>
    </defs>
    <g clip-path="url(#p37257dcb4f)">
     <use xlink:href="#mfe0d0ea1b2" x="0" y="168.743808" style="fill: #1e90ff; fill-opacity: 0.45; stroke: #1e90ff; stroke-opacity: 0.45; stroke-width: 0.8"/>
    </g>
   </g>
   <g id="line2d_1">
    <path d="M 54.300844 144.972393 
L 242.004844 144.972393 
" clip-path="url(#p37257dcb4f)" style="fill: none; stroke-dasharray: 1.85,0.8; stroke-dashoffset: 0; stroke: #000000; stroke-opacity: 0.5; stroke-width: 0.5"/>
   </g>
   <g id="matplotlib.axis_1">
    <g id="xtick_1">
     <g id="line2d_2"/>
     <g id="text_1">
      <text style="font-size: 7px; font-family: 'Helvetica', 'Arial', 'DejaVu Sans', sans-serif; text-anchor: middle" x="105.492844" y="160.088026" transform="rotate(-0 105.492844 160.088026)">Bayesian</text>
     </g>
    </g>
    <g id="xtick_2">
     <g id="line2d_3"/>
     <g id="text_2">
      <text style="font-size: 7px; font-family: 'Helvetica', 'Arial', 'DejaVu Sans', sans-serif; text-anchor: middle" x="190.812844" y="160.088026" transform="rotate(-0 190.812844 160.088026)">cNF</text>
     </g>
    </g>
   </g>
   <g id="matplotlib.axis_2">
    <g id="ytick_1">
     <g id="line2d_4">
      <path d="M 54.300844 144.972393 
L 242.004844 144.972393 
" clip-path="url(#p37257dcb4f)" style="fill: none; stroke-dasharray: 0.4,0.66; stroke-dashoffset: 0; stroke: #b0b0b0; stroke-opacity: 0.25; stroke-width: 0.4"/>
     </g>
     <g id="line2d_5">
      <defs>
       <path id="maeb6d78194" d="M 0 0 
L -3 0 
" style="stroke: #000000; stroke-width: 0.6"/>
      </defs>
      <g>
       <use xlink:href="#maeb6d78194" x="54.300844" y="144.972393" style="stroke: #000000; stroke-width: 0.6"/>
      </g>
     </g>
     <g id="text_3">
      <text style="font-size: 8px; font-family: 'Helvetica', 'Arial', 'DejaVu Sans', sans-serif; text-anchor: end" x="47.800844" y="148.011768" transform="rotate(-0 47.800844 148.011768)">0.00</text>
     </g>
    </g>
    <g id="ytick_2">
     <g id="line2d_6">
      <path d="M 54.300844 113.730316 
L 242.004844 113.730316 
" clip-path="url(#p37257dcb4f)" style="fill: none; stroke-dasharray: 0.4,0.66; stroke-dashoffset: 0; stroke: #b0b0b0; stroke-opacity: 0.25; stroke-width: 0.4"/>
     </g>
     <g id="line2d_7">
      <g>
       <use xlink:href="#maeb6d78194" x="54.300844" y="113.730316" style="stroke: #000000; stroke-width: 0.6"/>
      </g>
     </g>
     <g id="text_4">
      <text style="font-size: 8px; font-family: 'Helvetica', 'Arial', 'DejaVu Sans', sans-serif; text-anchor: end" x="47.800844" y="116.769691" transform="rotate(-0 47.800844 116.769691)">0.50</text>
     </g>
    </g>
    <g id="ytick_3">
     <g id="line2d_8">
      <path d="M 54.300844 82.488239 
L 242.004844 82.488239 
" clip-path="url(#p37257dcb4f)" style="fill: none; stroke-dasharray: 0.4,0.66; stroke-dashoffset: 0; stroke: #b0b0b0; stroke-opacity: 0.25; stroke-width: 0.4"/>
     </g>
     <g id="line2d_9">
      <g>
       <use xlink:href="#maeb6d78194" x="54.300844" y="82.488239" style="stroke: #000000; stroke-width: 0.6"/>
      </g>
     </g>
     <g id="text_5">
      <text style="font-size: 8px; font-family: 'Helvetica', 'Arial', 'DejaVu Sans', sans-serif; text-anchor: end" x="47.800844" y="85.527614" transform="rotate(-0 47.800844 85.527614)">1.00</text>
     </g>
    </g>
    <g id="ytick_4">
     <g id="line2d_10">
      <path d="M 54.300844 51.246163 
L 242.004844 51.246163 
" clip-path="url(#p37257dcb4f)" style="fill: none; stroke-dasharray: 0.4,0.66; stroke-dashoffset: 0; stroke: #b0b0b0; stroke-opacity: 0.25; stroke-width: 0.4"/>
     </g>
     <g id="line2d_11">
      <g>
       <use xlink:href="#maeb6d78194" x="54.300844" y="51.246163" style="stroke: #000000; stroke-width: 0.6"/>
      </g>
     </g>
     <g id="text_6">
      <text style="font-size: 8px; font-family: 'Helvetica', 'Arial', 'DejaVu Sans', sans-serif; text-anchor: end" x="47.800844" y="54.285538" transform="rotate(-0 47.800844 54.285538)">1.50</text>
     </g>
    </g>
    <g id="ytick_5">
     <g id="line2d_12">
      <path d="M 54.300844 20.004086 
L 242.004844 20.004086 
" clip-path="url(#p37257dcb4f)" style="fill: none; stroke-dasharray: 0.4,0.66; stroke-dashoffset: 0; stroke: #b0b0b0; stroke-opacity: 0.25; stroke-width: 0.4"/>
     </g>
     <g id="line2d_13">
      <g>
       <use xlink:href="#maeb6d78194" x="54.300844" y="20.004086" style="stroke: #000000; stroke-width: 0.6"/>
      </g>
     </g>
     <g id="text_7">
      <text style="font-size: 8px; font-family: 'Helvetica', 'Arial', 'DejaVu Sans', sans-serif; text-anchor: end" x="47.800844" y="23.043461" transform="rotate(-0 47.800844 23.043461)">2.00</text>
     </g>
    </g>
    <g id="text_8">
     <text style="font-size: 9px; font-family: 'Helvetica', 'Arial', 'DejaVu Sans', sans-serif" transform="translate(14.038594 135.617698) rotate(-90)">Average Estimate Error </text>
     <text style="font-size: 9px; font-family: 'Helvetica', 'Arial', 'DejaVu Sans', sans-serif" transform="translate(24.116625 95.320901) rotate(-90)">(MAE)</text>
    </g>
   </g>
   <g id="line2d_14">
    <path d="M 108.297715 124.364847 
L 192.551467 111.260571 
" clip-path="url(#p37257dcb4f)" style="fill: none; stroke: #737373; stroke-opacity: 0.42; stroke-width: 0.7; stroke-linecap: square"/>
   </g>
   <g id="line2d_15">
    <path d="M 104.867057 92.067489 
L 190.16938 104.200986 
" clip-path="url(#p37257dcb4f)" style="fill: none; stroke: #737373; stroke-opacity: 0.42; stroke-width: 0.7; stroke-linecap: square"/>
   </g>
   <g id="line2d_16">
    <path d="M 109.164313 102.871042 
L 194.218936 111.362172 
" clip-path="url(#p37257dcb4f)" style="fill: none; stroke: #737373; stroke-opacity: 0.42; stroke-width: 0.7; stroke-linecap: square"/>
   </g>
   <g id="line2d_17">
    <path d="M 107.513577 133.29122 
L 192.863238 112.974362 
" clip-path="url(#p37257dcb4f)" style="fill: none; stroke: #737373; stroke-opacity: 0.42; stroke-width: 0.7; stroke-linecap: square"/>
   </g>
   <g id="line2d_18">
    <path d="M 101.337869 100.704755 
L 188.891778 109.723657 
" clip-path="url(#p37257dcb4f)" style="fill: none; stroke: #737373; stroke-opacity: 0.42; stroke-width: 0.7; stroke-linecap: square"/>
   </g>
   <g id="line2d_19">
    <path d="M 110.362456 80.135492 
L 194.214653 90.934408 
" clip-path="url(#p37257dcb4f)" style="fill: none; stroke: #737373; stroke-opacity: 0.42; stroke-width: 0.7; stroke-linecap: square"/>
   </g>
   <g id="line2d_20">
    <path d="M 108.166496 96.632389 
L 193.933143 101.21003 
" clip-path="url(#p37257dcb4f)" style="fill: none; stroke: #737373; stroke-opacity: 0.42; stroke-width: 0.7; stroke-linecap: square"/>
   </g>
   <g id="line2d_21">
    <path d="M 108.421685 78.085821 
L 189.660802 95.955692 
" clip-path="url(#p37257dcb4f)" style="fill: none; stroke: #737373; stroke-opacity: 0.42; stroke-width: 0.7; stroke-linecap: square"/>
   </g>
   <g id="line2d_22">
    <path d="M 101.685322 81.595416 
L 188.645662 113.34293 
" clip-path="url(#p37257dcb4f)" style="fill: none; stroke: #737373; stroke-opacity: 0.42; stroke-width: 0.7; stroke-linecap: square"/>
   </g>
   <g id="line2d_23">
    <path d="M 104.984875 109.391822 
L 192.681306 107.090404 
" clip-path="url(#p37257dcb4f)" style="fill: none; stroke: #737373; stroke-opacity: 0.42; stroke-width: 0.7; stroke-linecap: square"/>
   </g>
   <g id="line2d_24">
    <path d="M 104.170022 32.773444 
L 187.124486 93.848478 
" clip-path="url(#p37257dcb4f)" style="fill: none; stroke: #737373; stroke-opacity: 0.42; stroke-width: 0.7; stroke-linecap: square"/>
   </g>
   <g id="line2d_25">
    <path d="M 109.862234 52.380267 
L 187.740384 82.473692 
" clip-path="url(#p37257dcb4f)" style="fill: none; stroke: #737373; stroke-opacity: 0.42; stroke-width: 0.7; stroke-linecap: square"/>
   </g>
   <g id="line2d_26">
    <path d="M 106.965792 96.413752 
L 185.769022 104.001993 
" clip-path="url(#p37257dcb4f)" style="fill: none; stroke: #737373; stroke-opacity: 0.42; stroke-width: 0.7; stroke-linecap: square"/>
   </g>
   <g id="line2d_27">
    <path d="M 108.797406 28.366332 
L 193.75049 102.631253 
" clip-path="url(#p37257dcb4f)" style="fill: none; stroke: #737373; stroke-opacity: 0.42; stroke-width: 0.7; stroke-linecap: square"/>
   </g>
   <g id="line2d_28">
    <path d="M 104.913496 84.09442 
L 192.500653 72.358369 
" clip-path="url(#p37257dcb4f)" style="fill: none; stroke: #737373; stroke-opacity: 0.42; stroke-width: 0.7; stroke-linecap: square"/>
   </g>
   <g id="line2d_29">
    <path d="M 102.700205 81.464744 
L 192.913409 88.486669 
" clip-path="url(#p37257dcb4f)" style="fill: none; stroke: #737373; stroke-opacity: 0.42; stroke-width: 0.7; stroke-linecap: square"/>
   </g>
   <g id="line2d_30">
    <path d="M 106.051705 98.147881 
L 193.68706 97.362753 
" clip-path="url(#p37257dcb4f)" style="fill: none; stroke: #737373; stroke-opacity: 0.42; stroke-width: 0.7; stroke-linecap: square"/>
   </g>
   <g id="line2d_31">
    <path d="M 101.02703 106.952839 
L 190.392207 107.877747 
" clip-path="url(#p37257dcb4f)" style="fill: none; stroke: #737373; stroke-opacity: 0.42; stroke-width: 0.7; stroke-linecap: square"/>
   </g>
   <g id="line2d_32">
    <path d="M 108.847263 72.555748 
L 191.516644 90.767494 
" clip-path="url(#p37257dcb4f)" style="fill: none; stroke: #737373; stroke-opacity: 0.42; stroke-width: 0.7; stroke-linecap: square"/>
   </g>
   <g id="line2d_33">
    <path d="M 106.840877 82.097389 
L 187.124941 66.486751 
" clip-path="url(#p37257dcb4f)" style="fill: none; stroke: #737373; stroke-opacity: 0.42; stroke-width: 0.7; stroke-linecap: square"/>
   </g>
   <g id="line2d_34">
    <path d="M 108.135249 101.095282 
L 186.866248 109.816267 
" clip-path="url(#p37257dcb4f)" style="fill: none; stroke: #737373; stroke-opacity: 0.42; stroke-width: 0.7; stroke-linecap: square"/>
   </g>
   <g id="line2d_35">
    <path d="M 104.003422 87.782878 
L 192.537021 103.217233 
" clip-path="url(#p37257dcb4f)" style="fill: none; stroke: #737373; stroke-opacity: 0.42; stroke-width: 0.7; stroke-linecap: square"/>
   </g>
   <g id="line2d_36">
    <path d="M 110.312038 72.55545 
L 190.516915 101.681942 
" clip-path="url(#p37257dcb4f)" style="fill: none; stroke: #737373; stroke-opacity: 0.42; stroke-width: 0.7; stroke-linecap: square"/>
   </g>
   <g id="line2d_37">
    <path d="M 109.517775 72.596909 
L 191.480757 87.629449 
" clip-path="url(#p37257dcb4f)" style="fill: none; stroke: #737373; stroke-opacity: 0.42; stroke-width: 0.7; stroke-linecap: square"/>
   </g>
   <g id="line2d_38">
    <path d="M 108.343045 117.089474 
L 193.526008 123.871256 
" clip-path="url(#p37257dcb4f)" style="fill: none; stroke: #737373; stroke-opacity: 0.42; stroke-width: 0.7; stroke-linecap: square"/>
   </g>
   <g id="line2d_39">
    <path d="M 102.366433 96.881849 
L 192.192144 101.500595 
" clip-path="url(#p37257dcb4f)" style="fill: none; stroke: #737373; stroke-opacity: 0.42; stroke-width: 0.7; stroke-linecap: square"/>
   </g>
   <g id="line2d_40">
    <path d="M 105.15212 102.995877 
L 191.361411 104.664037 
" clip-path="url(#p37257dcb4f)" style="fill: none; stroke: #737373; stroke-opacity: 0.42; stroke-width: 0.7; stroke-linecap: square"/>
   </g>
   <g id="line2d_41">
    <path d="M 100.822124 109.494886 
L 191.41903 111.470443 
" clip-path="url(#p37257dcb4f)" style="fill: none; stroke: #737373; stroke-opacity: 0.42; stroke-width: 0.7; stroke-linecap: square"/>
   </g>
   <g id="line2d_42">
    <path d="M 101.953321 112.384351 
L 188.805606 111.540504 
" clip-path="url(#p37257dcb4f)" style="fill: none; stroke: #737373; stroke-opacity: 0.42; stroke-width: 0.7; stroke-linecap: square"/>
   </g>
   <g id="line2d_43">
    <path d="M 107.366972 113.992004 
L 186.009169 113.627487 
" clip-path="url(#p37257dcb4f)" style="fill: none; stroke: #737373; stroke-opacity: 0.42; stroke-width: 0.7; stroke-linecap: square"/>
   </g>
   <g id="line2d_44">
    <path d="M 107.998817 101.835973 
L 190.164931 106.201356 
" clip-path="url(#p37257dcb4f)" style="fill: none; stroke: #737373; stroke-opacity: 0.42; stroke-width: 0.7; stroke-linecap: square"/>
   </g>
   <g id="line2d_45">
    <path d="M 110.279395 111.280153 
L 187.890647 117.587815 
" clip-path="url(#p37257dcb4f)" style="fill: none; stroke: #737373; stroke-opacity: 0.42; stroke-width: 0.7; stroke-linecap: square"/>
   </g>
   <g id="line2d_46">
    <path d="M 103.709574 97.709978 
L 189.876323 106.779648 
" clip-path="url(#p37257dcb4f)" style="fill: none; stroke: #737373; stroke-opacity: 0.42; stroke-width: 0.7; stroke-linecap: square"/>
   </g>
   <g id="line2d_47">
    <path d="M 104.166558 123.179759 
L 194.431126 124.164614 
" clip-path="url(#p37257dcb4f)" style="fill: none; stroke: #737373; stroke-opacity: 0.42; stroke-width: 0.7; stroke-linecap: square"/>
   </g>
   <g id="line2d_48">
    <path d="M 105.181144 101.737847 
L 188.08881 101.756813 
" clip-path="url(#p37257dcb4f)" style="fill: none; stroke: #737373; stroke-opacity: 0.42; stroke-width: 0.7; stroke-linecap: square"/>
   </g>
   <g id="line2d_49">
    <path d="M 102.313527 111.226144 
L 186.290571 114.024672 
" clip-path="url(#p37257dcb4f)" style="fill: none; stroke: #737373; stroke-opacity: 0.42; stroke-width: 0.7; stroke-linecap: square"/>
   </g>
   <g id="line2d_50">
    <path d="M 101.703832 122.837139 
L 188.574565 123.499621 
" clip-path="url(#p37257dcb4f)" style="fill: none; stroke: #737373; stroke-opacity: 0.42; stroke-width: 0.7; stroke-linecap: square"/>
   </g>
   <g id="line2d_51">
    <path d="M 105.244101 59.027506 
L 188.699574 73.133662 
" clip-path="url(#p37257dcb4f)" style="fill: none; stroke: #737373; stroke-opacity: 0.42; stroke-width: 0.7; stroke-linecap: square"/>
   </g>
   <g id="line2d_52">
    <path d="M 102.696832 120.024789 
L 192.47061 127.528921 
" clip-path="url(#p37257dcb4f)" style="fill: none; stroke: #737373; stroke-opacity: 0.42; stroke-width: 0.7; stroke-linecap: square"/>
   </g>
   <g id="line2d_53">
    <path d="M 105.492844 22.815884 
L 105.492844 19.037847 
L 190.812844 19.037847 
L 190.812844 22.815884 
" clip-path="url(#p37257dcb4f)" style="fill: none; stroke: #000000; stroke-width: 0.8; stroke-linecap: square"/>
   </g>
   <g id="patch_3">
    <path d="M 54.300844 151.26912 
L 54.300844 12.74112 
" style="fill: none; stroke: #000000; stroke-width: 0.6; stroke-linejoin: miter; stroke-linecap: square"/>
   </g>
   <g id="patch_4">
    <path d="M 54.300844 151.26912 
L 242.004844 151.26912 
" style="fill: none; stroke: #000000; stroke-width: 0.6; stroke-linejoin: miter; stroke-linecap: square"/>
   </g>
   <g id="PathCollection_1">
    <defs>
     <path id="m329914025a" d="M 0 1.732051 
C 0.459345 1.732051 0.899939 1.549551 1.224745 1.224745 
C 1.549551 0.899939 1.732051 0.459345 1.732051 0 
C 1.732051 -0.459345 1.549551 -0.899939 1.224745 -1.224745 
C 0.899939 -1.549551 0.459345 -1.732051 0 -1.732051 
C -0.459345 -1.732051 -0.899939 -1.549551 -1.224745 -1.224745 
C -1.549551 -0.899939 -1.732051 -0.459345 -1.732051 0 
C -1.732051 0.459345 -1.549551 0.899939 -1.224745 1.224745 
C -0.899939 1.549551 -0.459345 1.732051 0 1.732051 
z
"/>
    </defs>
    <g clip-path="url(#p37257dcb4f)">
     <use xlink:href="#m329914025a" x="108.297715" y="124.364847" style="fill: #ba55d3; fill-opacity: 0.6"/>
     <use xlink:href="#m329914025a" x="104.867057" y="92.067489" style="fill: #ba55d3; fill-opacity: 0.6"/>
     <use xlink:href="#m329914025a" x="109.164313" y="102.871042" style="fill: #ba55d3; fill-opacity: 0.6"/>
     <use xlink:href="#m329914025a" x="107.513577" y="133.29122" style="fill: #ba55d3; fill-opacity: 0.6"/>
     <use xlink:href="#m329914025a" x="101.337869" y="100.704755" style="fill: #ba55d3; fill-opacity: 0.6"/>
     <use xlink:href="#m329914025a" x="110.362456" y="80.135492" style="fill: #ba55d3; fill-opacity: 0.6"/>
     <use xlink:href="#m329914025a" x="108.166496" y="96.632389" style="fill: #ba55d3; fill-opacity: 0.6"/>
     <use xlink:href="#m329914025a" x="108.421685" y="78.085821" style="fill: #ba55d3; fill-opacity: 0.6"/>
     <use xlink:href="#m329914025a" x="101.685322" y="81.595416" style="fill: #ba55d3; fill-opacity: 0.6"/>
     <use xlink:href="#m329914025a" x="104.984875" y="109.391822" style="fill: #ba55d3; fill-opacity: 0.6"/>
     <use xlink:href="#m329914025a" x="104.170022" y="32.773444" style="fill: #ba55d3; fill-opacity: 0.6"/>
     <use xlink:href="#m329914025a" x="109.862234" y="52.380267" style="fill: #ba55d3; fill-opacity: 0.6"/>
     <use xlink:href="#m329914025a" x="106.965792" y="96.413752" style="fill: #ba55d3; fill-opacity: 0.6"/>
     <use xlink:href="#m329914025a" x="108.797406" y="28.366332" style="fill: #ba55d3; fill-opacity: 0.6"/>
     <use xlink:href="#m329914025a" x="104.913496" y="84.09442" style="fill: #ba55d3; fill-opacity: 0.6"/>
     <use xlink:href="#m329914025a" x="102.700205" y="81.464744" style="fill: #ba55d3; fill-opacity: 0.6"/>
     <use xlink:href="#m329914025a" x="106.051705" y="98.147881" style="fill: #ba55d3; fill-opacity: 0.6"/>
     <use xlink:href="#m329914025a" x="101.02703" y="106.952839" style="fill: #ba55d3; fill-opacity: 0.6"/>
     <use xlink:href="#m329914025a" x="108.847263" y="72.555748" style="fill: #ba55d3; fill-opacity: 0.6"/>
     <use xlink:href="#m329914025a" x="106.840877" y="82.097389" style="fill: #ba55d3; fill-opacity: 0.6"/>
     <use xlink:href="#m329914025a" x="108.135249" y="101.095282" style="fill: #ba55d3; fill-opacity: 0.6"/>
     <use xlink:href="#m329914025a" x="104.003422" y="87.782878" style="fill: #ba55d3; fill-opacity: 0.6"/>
     <use xlink:href="#m329914025a" x="110.312038" y="72.55545" style="fill: #ba55d3; fill-opacity: 0.6"/>
     <use xlink:href="#m329914025a" x="109.517775" y="72.596909" style="fill: #ba55d3; fill-opacity: 0.6"/>
     <use xlink:href="#m329914025a" x="108.343045" y="117.089474" style="fill: #ba55d3; fill-opacity: 0.6"/>
     <use xlink:href="#m329914025a" x="102.366433" y="96.881849" style="fill: #ba55d3; fill-opacity: 0.6"/>
     <use xlink:href="#m329914025a" x="105.15212" y="102.995877" style="fill: #ba55d3; fill-opacity: 0.6"/>
     <use xlink:href="#m329914025a" x="100.822124" y="109.494886" style="fill: #ba55d3; fill-opacity: 0.6"/>
     <use xlink:href="#m329914025a" x="101.953321" y="112.384351" style="fill: #ba55d3; fill-opacity: 0.6"/>
     <use xlink:href="#m329914025a" x="107.366972" y="113.992004" style="fill: #ba55d3; fill-opacity: 0.6"/>
     <use xlink:href="#m329914025a" x="107.998817" y="101.835973" style="fill: #ba55d3; fill-opacity: 0.6"/>
     <use xlink:href="#m329914025a" x="110.279395" y="111.280153" style="fill: #ba55d3; fill-opacity: 0.6"/>
     <use xlink:href="#m329914025a" x="103.709574" y="97.709978" style="fill: #ba55d3; fill-opacity: 0.6"/>
     <use xlink:href="#m329914025a" x="104.166558" y="123.179759" style="fill: #ba55d3; fill-opacity: 0.6"/>
     <use xlink:href="#m329914025a" x="105.181144" y="101.737847" style="fill: #ba55d3; fill-opacity: 0.6"/>
     <use xlink:href="#m329914025a" x="102.313527" y="111.226144" style="fill: #ba55d3; fill-opacity: 0.6"/>
     <use xlink:href="#m329914025a" x="101.703832" y="122.837139" style="fill: #ba55d3; fill-opacity: 0.6"/>
     <use xlink:href="#m329914025a" x="105.244101" y="59.027506" style="fill: #ba55d3; fill-opacity: 0.6"/>
     <use xlink:href="#m329914025a" x="102.696832" y="120.024789" style="fill: #ba55d3; fill-opacity: 0.6"/>
    </g>
   </g>
   <g id="PathCollection_2">
    <defs>
     <path id="m32e366de88" d="M 0 1.732051 
C 0.459345 1.732051 0.899939 1.549551 1.224745 1.224745 
C 1.549551 0.899939 1.732051 0.459345 1.732051 0 
C 1.732051 -0.459345 1.549551 -0.899939 1.224745 -1.224745 
C 0.899939 -1.549551 0.459345 -1.732051 0 -1.732051 
C -0.459345 -1.732051 -0.899939 -1.549551 -1.224745 -1.224745 
C -1.549551 -0.899939 -1.732051 -0.459345 -1.732051 0 
C -1.732051 0.459345 -1.549551 0.899939 -1.224745 1.224745 
C -0.899939 1.549551 -0.459345 1.732051 0 1.732051 
z
"/>
    </defs>
    <g clip-path="url(#p37257dcb4f)">
     <use xlink:href="#m32e366de88" x="192.551467" y="111.260571" style="fill: #1e90ff; fill-opacity: 0.6"/>
     <use xlink:href="#m32e366de88" x="190.16938" y="104.200986" style="fill: #1e90ff; fill-opacity: 0.6"/>
     <use xlink:href="#m32e366de88" x="194.218936" y="111.362172" style="fill: #1e90ff; fill-opacity: 0.6"/>
     <use xlink:href="#m32e366de88" x="192.863238" y="112.974362" style="fill: #1e90ff; fill-opacity: 0.6"/>
     <use xlink:href="#m32e366de88" x="188.891778" y="109.723657" style="fill: #1e90ff; fill-opacity: 0.6"/>
     <use xlink:href="#m32e366de88" x="194.214653" y="90.934408" style="fill: #1e90ff; fill-opacity: 0.6"/>
     <use xlink:href="#m32e366de88" x="193.933143" y="101.21003" style="fill: #1e90ff; fill-opacity: 0.6"/>
     <use xlink:href="#m32e366de88" x="189.660802" y="95.955692" style="fill: #1e90ff; fill-opacity: 0.6"/>
     <use xlink:href="#m32e366de88" x="188.645662" y="113.34293" style="fill: #1e90ff; fill-opacity: 0.6"/>
     <use xlink:href="#m32e366de88" x="192.681306" y="107.090404" style="fill: #1e90ff; fill-opacity: 0.6"/>
     <use xlink:href="#m32e366de88" x="187.124486" y="93.848478" style="fill: #1e90ff; fill-opacity: 0.6"/>
     <use xlink:href="#m32e366de88" x="187.740384" y="82.473692" style="fill: #1e90ff; fill-opacity: 0.6"/>
     <use xlink:href="#m32e366de88" x="185.769022" y="104.001993" style="fill: #1e90ff; fill-opacity: 0.6"/>
     <use xlink:href="#m32e366de88" x="193.75049" y="102.631253" style="fill: #1e90ff; fill-opacity: 0.6"/>
     <use xlink:href="#m32e366de88" x="192.500653" y="72.358369" style="fill: #1e90ff; fill-opacity: 0.6"/>
     <use xlink:href="#m32e366de88" x="192.913409" y="88.486669" style="fill: #1e90ff; fill-opacity: 0.6"/>
     <use xlink:href="#m32e366de88" x="193.68706" y="97.362753" style="fill: #1e90ff; fill-opacity: 0.6"/>
     <use xlink:href="#m32e366de88" x="190.392207" y="107.877747" style="fill: #1e90ff; fill-opacity: 0.6"/>
     <use xlink:href="#m32e366de88" x="191.516644" y="90.767494" style="fill: #1e90ff; fill-opacity: 0.6"/>
     <use xlink:href="#m32e366de88" x="187.124941" y="66.486751" style="fill: #1e90ff; fill-opacity: 0.6"/>
     <use xlink:href="#m32e366de88" x="186.866248" y="109.816267" style="fill: #1e90ff; fill-opacity: 0.6"/>
     <use xlink:href="#m32e366de88" x="192.537021" y="103.217233" style="fill: #1e90ff; fill-opacity: 0.6"/>
     <use xlink:href="#m32e366de88" x="190.516915" y="101.681942" style="fill: #1e90ff; fill-opacity: 0.6"/>
     <use xlink:href="#m32e366de88" x="191.480757" y="87.629449" style="fill: #1e90ff; fill-opacity: 0.6"/>
     <use xlink:href="#m32e366de88" x="193.526008" y="123.871256" style="fill: #1e90ff; fill-opacity: 0.6"/>
     <use xlink:href="#m32e366de88" x="192.192144" y="101.500595" style="fill: #1e90ff; fill-opacity: 0.6"/>
     <use xlink:href="#m32e366de88" x="191.361411" y="104.664037" style="fill: #1e90ff; fill-opacity: 0.6"/>
     <use xlink:href="#m32e366de88" x="191.41903" y="111.470443" style="fill: #1e90ff; fill-opacity: 0.6"/>
     <use xlink:href="#m32e366de88" x="188.805606" y="111.540504" style="fill: #1e90ff; fill-opacity: 0.6"/>
     <use xlink:href="#m32e366de88" x="186.009169" y="113.627487" style="fill: #1e90ff; fill-opacity: 0.6"/>
     <use xlink:href="#m32e366de88" x="190.164931" y="106.201356" style="fill: #1e90ff; fill-opacity: 0.6"/>
     <use xlink:href="#m32e366de88" x="187.890647" y="117.587815" style="fill: #1e90ff; fill-opacity: 0.6"/>
     <use xlink:href="#m32e366de88" x="189.876323" y="106.779648" style="fill: #1e90ff; fill-opacity: 0.6"/>
     <use xlink:href="#m32e366de88" x="194.431126" y="124.164614" style="fill: #1e90ff; fill-opacity: 0.6"/>
     <use xlink:href="#m32e366de88" x="188.08881" y="101.756813" style="fill: #1e90ff; fill-opacity: 0.6"/>
     <use xlink:href="#m32e366de88" x="186.290571" y="114.024672" style="fill: #1e90ff; fill-opacity: 0.6"/>
     <use xlink:href="#m32e366de88" x="188.574565" y="123.499621" style="fill: #1e90ff; fill-opacity: 0.6"/>
     <use xlink:href="#m32e366de88" x="188.699574" y="73.133662" style="fill: #1e90ff; fill-opacity: 0.6"/>
     <use xlink:href="#m32e366de88" x="192.47061" y="127.528921" style="fill: #1e90ff; fill-opacity: 0.6"/>
    </g>
   </g>
   <g id="text_9">
    <text style="font-size: 7.5px; font-family: 'Helvetica', 'Arial', 'DejaVu Sans', sans-serif; text-anchor: middle" x="148.152844" y="16.218736" transform="rotate(-0 148.152844 16.218736)">p = 0.003 **</text>
   </g>
   <g id="text_10">
    <text style="font-weight: 700; font-size: 10px; font-family: 'Helvetica', 'Arial', 'DejaVu Sans', sans-serif; text-anchor: start" x="13.005964" y="14.798438" transform="rotate(-0 13.005964 14.798438)">A</text>
   </g>
   <g id="line2d_54">
    <path d="M 105.492844 110.360515 
L 105.492844 81.53008 
" clip-path="url(#p37257dcb4f)" style="fill: none; stroke: #ba55d3; stroke-width: 2.2; stroke-linecap: round"/>
   </g>
   <g id="line2d_55">
    <path d="M 190.812844 111.505473 
L 190.812844 96.659222 
" clip-path="url(#p37257dcb4f)" style="fill: none; stroke: #1e90ff; stroke-width: 2.2; stroke-linecap: round"/>
   </g>
   <g id="PathCollection_3">
    <defs>
     <path id="mef8933e908" d="M 0 2.12132 
C 0.562581 2.12132 1.102195 1.897805 1.5 1.5 
C 1.897805 1.102195 2.12132 0.562581 2.12132 0 
C 2.12132 -0.562581 1.897805 -1.102195 1.5 -1.5 
C 1.102195 -1.897805 0.562581 -2.12132 0 -2.12132 
C -0.562581 -2.12132 -1.102195 -1.897805 -1.5 -1.5 
C -1.897805 -1.102195 -2.12132 -0.562581 -2.12132 0 
C -2.12132 0.562581 -1.897805 1.102195 -1.5 1.5 
C -1.102195 1.897805 -0.562581 2.12132 0 2.12132 
z
" style="stroke: #ba55d3; stroke-width: 0.8"/>
    </defs>
    <g clip-path="url(#p37257dcb4f)">
     <use xlink:href="#mef8933e908" x="105.492844" y="98.147881" style="fill: #ffffff; stroke: #ba55d3; stroke-width: 0.8"/>
    </g>
   </g>
   <g id="PathCollection_4">
    <defs>
     <path id="mf6b641686d" d="M 0 2.12132 
C 0.562581 2.12132 1.102195 1.897805 1.5 1.5 
C 1.897805 1.102195 2.12132 0.562581 2.12132 0 
C 2.12132 -0.562581 1.897805 -1.102195 1.5 -1.5 
C 1.102195 -1.897805 0.562581 -2.12132 0 -2.12132 
C -0.562581 -2.12132 -1.102195 -1.897805 -1.5 -1.5 
C -1.897805 -1.102195 -2.12132 -0.562581 -2.12132 0 
C -2.12132 0.562581 -1.897805 1.102195 -1.5 1.5 
C -1.102195 1.897805 -0.562581 2.12132 0 2.12132 
z
" style="stroke: #1e90ff; stroke-width: 0.8"/>
    </defs>
    <g clip-path="url(#p37257dcb4f)">
     <use xlink:href="#mf6b641686d" x="190.812844" y="104.664037" style="fill: #ffffff; stroke: #1e90ff; stroke-width: 0.8"/>
    </g>
   </g>
  </g>
 </g>
 <defs>
  <clipPath id="p37257dcb4f">
   <rect x="54.300844" y="12.74112" width="187.704" height="138.528"/>
  </clipPath>
 </defs>
 <defs>
  <pattern id="h1799dd9996" patternUnits="userSpaceOnUse" x="0" y="0" width="72" height="72">
   <rect x="0" y="0" width="73" height="73" fill="#ba55d3"/>
   <path d="M -36 36 
L 36 -36 
M -33 39 
L 39 -33 
M -30 42 
L 42 -30 
M -27 45 
L 45 -27 
M -24 48 
L 48 -24 
M -21 51 
L 51 -21 
M -18 54 
L 54 -18 
M -15 57 
L 57 -15 
M -12 60 
L 60 -12 
M -9 63 
L 63 -9 
M -6 66 
L 66 -6 
M -3 69 
L 69 -3 
M 0 72 
L 72 0 
M 3 75 
L 75 3 
M 6 78 
L 78 6 
M 9 81 
L 81 9 
M 12 84 
L 84 12 
M 15 87 
L 87 15 
M 18 90 
L 90 18 
M 21 93 
L 93 21 
M 24 96 
L 96 24 
M 27 99 
L 99 27 
M 30 102 
L 102 30 
M 33 105 
L 105 33 
M 36 108 
L 108 36 
" style="fill: #ba55d3; stroke: #ba55d3; stroke-width: 1.0; stroke-linecap: butt; stroke-linejoin: miter; stroke-opacity: 0.55"/>
  </pattern>
 </defs>
</svg>
