<?xml version="1.0" encoding="utf-8" standalone="no"?>
<!DOCTYPE svg PUBLIC "-//W3C//DTD SVG 1.1//EN"
  "http://www.w3.org/Graphics/SVG/1.1/DTD/svg11.dtd">
<svg xmlns:xlink="http://www.w3.org/1999/xlink" width="240.12pt" height="380.806726pt" viewBox="0 0 240.12 380.806726" xmlns="http://www.w3.org/2000/svg" version="1.1">
 <metadata>
  <rdf:RDF xmlns:dc="http://purl.org/dc/elements/1.1/" xmlns:cc="http://creativecommons.org/ns#" xmlns:rdf="http://www.w3.org/1999/02/22-rdf-syntax-ns#">
   <cc:Work>
    <dc:type rdf:resource="http://purl.org/dc/dcmitype/StillImage"/>
    <dc:date>2026-04-15T14:22:02.374319</dc:date>
    <dc:format>image/svg+xml</dc:format>
    <dc:creator>
     <cc:Agent>
      <dc:title>Matplotlib v3.10.7, https://matplotlib.org/</dc:title>
     </cc:Agent>
    </dc:creator>
   </cc:Work>
  </rdf:RDF>
 </metadata>
 <defs>
  <style type="text/css">*{stroke-linejoin: round; stroke-linecap: butt}</style>
 </defs>
 <g id="figure_1">
  <g id="patch_1">
   <path d="M 0 380.806726 
L 240.12 380.806726 
L 240.12 0 
L 0 0 
z
" style="fill: #ffffff"/>
  </g>
  <g id="axes_1">
   <g id="patch_2">
    <path d="M 68.976 159.401739 
L 232.92 159.401739 
L 232.92 13.053913 
L 68.976 13.053913 
z
" style="fill: #ffffff"/>
   </g>
   <g id="FillBetweenPolyCollection_1">
    <defs>
     <path id="m2e088786ff" d="M 117.296377 -251.718568 
L 110.079623 -251.718568 
L 109.552251 -252.827226 
L 108.96262 -253.935885 
L 108.304666 -255.044543 
L 107.573159 -256.153201 
L 106.764499 -257.261859 
L 105.87757 -258.370517 
L 104.914584 -259.479175 
L 103.881804 -260.587833 
L 102.790037 -261.696491 
L 101.654823 -262.805149 
L 100.496234 -263.913807 
L 99.338271 -265.022466 
L 98.207861 -266.131124 
L 97.133521 -267.239782 
L 96.143797 -268.34844 
L 95.265605 -269.457098 
L 94.522631 -270.565756 
L 93.933928 -271.674414 
L 93.512847 -272.783072 
L 93.266385 -273.89173 
L 93.195 -275.000389 
L 93.292886 -276.109047 
L 93.548663 -277.217705 
L 93.946387 -278.326363 
L 94.466788 -279.435021 
L 95.088587 -280.543679 
L 95.789798 -281.652337 
L 96.548908 -282.760995 
L 97.345856 -283.869653 
L 98.162758 -284.978312 
L 98.98438 -286.08697 
L 99.798351 -287.195628 
L 100.595147 -288.304286 
L 101.367903 -289.412944 
L 102.112096 -290.521602 
L 102.825146 -291.63026 
L 103.506007 -292.738918 
L 104.154761 -293.847576 
L 104.772267 -294.956235 
L 105.359866 -296.064893 
L 105.919166 -297.173551 
L 106.451883 -298.282209 
L 106.959743 -299.390867 
L 107.444427 -300.499525 
L 107.907524 -301.608183 
L 108.35051 -302.716841 
L 108.774712 -303.825499 
L 109.18127 -304.934158 
L 109.571087 -306.042816 
L 109.944787 -307.151474 
L 110.302673 -308.260132 
L 110.644711 -309.36879 
L 110.970534 -310.477448 
L 111.279485 -311.586106 
L 111.570685 -312.694764 
L 111.843136 -313.803422 
L 112.095832 -314.91208 
L 112.327885 -316.020739 
L 112.538633 -317.129397 
L 112.727736 -318.238055 
L 112.895236 -319.346713 
L 113.041583 -320.455371 
L 113.167633 -321.564029 
L 113.274599 -322.672687 
L 113.36399 -323.781345 
L 113.437526 -324.890003 
L 113.497048 -325.998662 
L 113.544425 -327.10732 
L 113.581475 -328.215978 
L 113.609899 -329.324636 
L 113.631223 -330.433294 
L 113.646768 -331.541952 
L 113.657623 -332.65061 
L 113.664641 -333.759268 
L 113.668434 -334.867926 
L 113.669388 -335.976585 
L 113.667668 -337.085243 
L 113.663239 -338.193901 
L 113.655886 -339.302559 
L 113.645241 -340.411217 
L 113.630814 -341.519875 
L 113.612036 -342.628533 
L 113.588309 -343.737191 
L 113.559071 -344.845849 
L 113.523866 -345.954508 
L 113.482422 -347.063166 
L 113.434729 -348.171824 
L 113.381113 -349.280482 
L 113.322293 -350.38914 
L 113.25941 -351.497798 
L 113.194031 -352.606456 
L 113.128108 -353.715114 
L 113.063897 -354.823772 
L 113.003846 -355.932431 
L 112.950439 -357.041089 
L 112.906035 -358.149747 
L 112.87269 -359.258405 
L 112.852004 -360.367063 
L 112.844993 -361.475721 
L 114.531007 -361.475721 
L 114.531007 -361.475721 
L 114.523996 -360.367063 
L 114.50331 -359.258405 
L 114.469965 -358.149747 
L 114.425561 -357.041089 
L 114.372154 -355.932431 
L 114.312103 -354.823772 
L 114.247892 -353.715114 
L 114.181969 -352.606456 
L 114.11659 -351.497798 
L 114.053707 -350.38914 
L 113.994887 -349.280482 
L 113.941271 -348.171824 
L 113.893578 -347.063166 
L 113.852134 -345.954508 
L 113.816929 -344.845849 
L 113.787691 -343.737191 
L 113.763964 -342.628533 
L 113.745186 -341.519875 
L 113.730759 -340.411217 
L 113.720114 -339.302559 
L 113.712761 -338.193901 
L 113.708332 -337.085243 
L 113.706612 -335.976585 
L 113.707566 -334.867926 
L 113.711359 -333.759268 
L 113.718377 -332.65061 
L 113.729232 -331.541952 
L 113.744777 -330.433294 
L 113.766101 -329.324636 
L 113.794525 -328.215978 
L 113.831575 -327.10732 
L 113.878952 -325.998662 
L 113.938474 -324.890003 
L 114.01201 -323.781345 
L 114.101401 -322.672687 
L 114.208367 -321.564029 
L 114.334417 -320.455371 
L 114.480764 -319.346713 
L 114.648264 -318.238055 
L 114.837367 -317.129397 
L 115.048115 -316.020739 
L 115.280168 -314.91208 
L 115.532864 -313.803422 
L 115.805315 -312.694764 
L 116.096515 -311.586106 
L 116.405466 -310.477448 
L 116.731289 -309.36879 
L 117.073327 -308.260132 
L 117.431213 -307.151474 
L 117.804913 -306.042816 
L 118.19473 -304.934158 
L 118.601288 -303.825499 
L 119.02549 -302.716841 
L 119.468476 -301.608183 
L 119.931573 -300.499525 
L 120.416257 -299.390867 
L 120.924117 -298.282209 
L 121.456834 -297.173551 
L 122.016134 -296.064893 
L 122.603733 -294.956235 
L 123.221239 -293.847576 
L 123.869993 -292.738918 
L 124.550854 -291.63026 
L 125.263904 -290.521602 
L 126.008097 -289.412944 
L 126.780853 -288.304286 
L 127.577649 -287.195628 
L 128.39162 -286.08697 
L 129.213242 -284.978312 
L 130.030144 -283.869653 
L 130.827092 -282.760995 
L 131.586202 -281.652337 
L 132.287413 -280.543679 
L 132.909212 -279.435021 
L 133.429613 -278.326363 
L 133.827337 -277.217705 
L 134.083114 -276.109047 
L 134.181 -275.000389 
L 134.109615 -273.89173 
L 133.863153 -272.783072 
L 133.442072 -271.674414 
L 132.853369 -270.565756 
L 132.110395 -269.457098 
L 131.232203 -268.34844 
L 130.242479 -267.239782 
L 129.168139 -266.131124 
L 128.037729 -265.022466 
L 126.879766 -263.913807 
L 125.721177 -262.805149 
L 124.585963 -261.696491 
L 123.494196 -260.587833 
L 122.461416 -259.479175 
L 121.49843 -258.370517 
L 120.611501 -257.261859 
L 119.802841 -256.153201 
L 119.071334 -255.044543 
L 118.41338 -253.935885 
L 117.823749 -252.827226 
L 117.296377 -251.718568 
z
" style="stroke: #1e90ff; stroke-opacity: 0.55; stroke-width: 0.8"/>
    </defs>
    <g clip-path="url(#p3b41b83f83)">
     <use xlink:href="#m2e088786ff" x="0" y="380.806726" style="fill: #1e90ff; fill-opacity: 0.55; stroke: #1e90ff; stroke-opacity: 0.55; stroke-width: 0.8"/>
    </g>
   </g>
   <g id="FillBetweenPolyCollection_2">
    <path d="M 191.372862 144.872833 
L 185.043138 144.872833 
L 184.766224 144.438501 
L 184.48537 144.004169 
L 184.201452 143.569837 
L 183.914865 143.135505 
L 183.62543 142.701173 
L 183.332323 142.266841 
L 183.034028 141.832509 
L 182.728323 141.398177 
L 182.412306 140.963845 
L 182.082461 140.529514 
L 181.734766 140.095182 
L 181.36485 139.66085 
L 180.968191 139.226518 
L 180.540344 138.792186 
L 180.077214 138.357854 
L 179.575327 137.923522 
L 179.032122 137.48919 
L 178.446219 137.054858 
L 177.817665 136.620526 
L 177.148133 136.186194 
L 176.441057 135.751862 
L 175.701696 135.31753 
L 174.937113 134.883198 
L 174.156072 134.448866 
L 173.368845 134.014535 
L 172.586941 133.580203 
L 171.82277 133.145871 
L 171.089256 132.711539 
L 170.399415 132.277207 
L 169.765921 131.842875 
L 169.200682 131.408543 
L 168.714435 130.974211 
L 168.316396 130.539879 
L 168.013955 130.105547 
L 167.812448 129.671215 
L 167.715 129.236883 
L 167.722449 128.802551 
L 167.833352 128.368219 
L 168.044068 127.933888 
L 168.348918 127.499556 
L 168.74041 127.065224 
L 169.209531 126.630892 
L 169.746074 126.19656 
L 170.339015 125.762228 
L 170.976902 125.327896 
L 171.648246 124.893564 
L 172.341912 124.459232 
L 173.047465 124.0249 
L 173.75548 123.590568 
L 174.457791 123.156236 
L 175.147667 122.721904 
L 175.819909 122.287572 
L 176.470864 121.85324 
L 177.098359 121.418909 
L 177.701562 120.984577 
L 178.280773 120.550245 
L 178.837172 120.115913 
L 179.372535 119.681581 
L 179.888938 119.247249 
L 180.388473 118.812917 
L 180.872992 118.378585 
L 181.343899 117.944253 
L 181.801999 117.509921 
L 182.247416 117.075589 
L 182.679583 116.641257 
L 183.097293 116.206925 
L 183.498818 115.772593 
L 183.88207 115.338261 
L 184.244786 114.90393 
L 184.584736 114.469598 
L 184.89992 114.035266 
L 185.188737 113.600934 
L 185.450122 113.166602 
L 185.683638 112.73227 
L 185.889505 112.297938 
L 186.068592 111.863606 
L 186.222344 111.429274 
L 186.352682 110.994942 
L 186.461874 110.56061 
L 186.552391 110.126278 
L 186.626762 109.691946 
L 186.687452 109.257614 
L 186.736752 108.823282 
L 186.776714 108.388951 
L 186.809112 107.954619 
L 186.835441 107.520287 
L 186.856943 107.085955 
L 186.874659 106.651623 
L 186.889493 106.217291 
L 186.902276 105.782959 
L 186.913825 105.348627 
L 186.924988 104.914295 
L 186.936665 104.479963 
L 186.949813 104.045631 
L 186.965417 103.611299 
L 186.984451 103.176967 
L 187.007822 102.742635 
L 187.036309 102.308304 
L 187.070499 101.873972 
L 189.345501 101.873972 
L 189.345501 101.873972 
L 189.379691 102.308304 
L 189.408178 102.742635 
L 189.431549 103.176967 
L 189.450583 103.611299 
L 189.466187 104.045631 
L 189.479335 104.479963 
L 189.491012 104.914295 
L 189.502175 105.348627 
L 189.513724 105.782959 
L 189.526507 106.217291 
L 189.541341 106.651623 
L 189.559057 107.085955 
L 189.580559 107.520287 
L 189.606888 107.954619 
L 189.639286 108.388951 
L 189.679248 108.823282 
L 189.728548 109.257614 
L 189.789238 109.691946 
L 189.863609 110.126278 
L 189.954126 110.56061 
L 190.063318 110.994942 
L 190.193656 111.429274 
L 190.347408 111.863606 
L 190.526495 112.297938 
L 190.732362 112.73227 
L 190.965878 113.166602 
L 191.227263 113.600934 
L 191.51608 114.035266 
L 191.831264 114.469598 
L 192.171214 114.90393 
L 192.53393 115.338261 
L 192.917182 115.772593 
L 193.318707 116.206925 
L 193.736417 116.641257 
L 194.168584 117.075589 
L 194.614001 117.509921 
L 195.072101 117.944253 
L 195.543008 118.378585 
L 196.027527 118.812917 
L 196.527062 119.247249 
L 197.043465 119.681581 
L 197.578828 120.115913 
L 198.135227 120.550245 
L 198.714438 120.984577 
L 199.317641 121.418909 
L 199.945136 121.85324 
L 200.596091 122.287572 
L 201.268333 122.721904 
L 201.958209 123.156236 
L 202.66052 123.590568 
L 203.368535 124.0249 
L 204.074088 124.459232 
L 204.767754 124.893564 
L 205.439098 125.327896 
L 206.076985 125.762228 
L 206.669926 126.19656 
L 207.206469 126.630892 
L 207.67559 127.065224 
L 208.067082 127.499556 
L 208.371932 127.933888 
L 208.582648 128.368219 
L 208.693551 128.802551 
L 208.701 129.236883 
L 208.603552 129.671215 
L 208.402045 130.105547 
L 208.099604 130.539879 
L 207.701565 130.974211 
L 207.215318 131.408543 
L 206.650079 131.842875 
L 206.016585 132.277207 
L 205.326744 132.711539 
L 204.59323 133.145871 
L 203.829059 133.580203 
L 203.047155 134.014535 
L 202.259928 134.448866 
L 201.478887 134.883198 
L 200.714304 135.31753 
L 199.974943 135.751862 
L 199.267867 136.186194 
L 198.598335 136.620526 
L 197.969781 137.054858 
L 197.383878 137.48919 
L 196.840673 137.923522 
L 196.338786 138.357854 
L 195.875656 138.792186 
L 195.447809 139.226518 
L 195.05115 139.66085 
L 194.681234 140.095182 
L 194.333539 140.529514 
L 194.003694 140.963845 
L 193.687677 141.398177 
L 193.381972 141.832509 
L 193.083677 142.266841 
L 192.79057 142.701173 
L 192.501135 143.135505 
L 192.214548 143.569837 
L 191.93063 144.004169 
L 191.649776 144.438501 
L 191.372862 144.872833 
z
" clip-path="url(#p3b41b83f83)" style="fill: url(#hd2bdf66020); fill-opacity: 0.45; stroke: #dc143c; stroke-opacity: 0.45; stroke-width: 0.8"/>
   </g>
   <g id="line2d_1">
    <path d="M 68.976 139.320599 
L 232.92 139.320599 
" clip-path="url(#p3b41b83f83)" style="fill: none; stroke-dasharray: 1.85,0.8; stroke-dashoffset: 0; stroke: #000000; stroke-opacity: 0.5; stroke-width: 0.5"/>
   </g>
   <g id="matplotlib.axis_1">
    <g id="xtick_1">
     <g id="line2d_2"/>
     <g id="text_1">
      <text style="font-size: 8px; font-family: 'Helvetica', 'Arial', 'DejaVu Sans', sans-serif; text-anchor: middle" x="113.688" y="168.980489" transform="rotate(-0 113.688 168.980489)">cNF</text>
     </g>
    </g>
    <g id="xtick_2">
     <g id="line2d_3"/>
     <g id="text_2">
      <text style="font-size: 8px; font-family: 'Helvetica', 'Arial', 'DejaVu Sans', sans-serif; text-anchor: middle" x="188.208" y="168.980489" transform="rotate(-0 188.208 168.980489)">NF</text>
     </g>
    </g>
    <g id="text_3">
     <text style="font-size: 9px; font-family: 'Helvetica', 'Arial', 'DejaVu Sans', sans-serif; text-anchor: middle" x="150.948" y="181.482833" transform="rotate(-0 150.948 181.482833)">Distribution Distance (EMD)</text>
    </g>
   </g>
   <g id="matplotlib.axis_2">
    <g id="ytick_1">
     <g id="line2d_4">
      <path d="M 68.976 139.320599 
L 232.92 139.320599 
" clip-path="url(#p3b41b83f83)" style="fill: none; stroke-dasharray: 0.4,0.66; stroke-dashoffset: 0; stroke: #b0b0b0; stroke-opacity: 0.25; stroke-width: 0.4"/>
     </g>
     <g id="line2d_5">
      <defs>
       <path id="m958f6b3a39" d="M 0 0 
L -3 0 
" style="stroke: #000000; stroke-width: 0.6"/>
      </defs>
      <g>
       <use xlink:href="#m958f6b3a39" x="68.976" y="139.320599" style="stroke: #000000; stroke-width: 0.6"/>
      </g>
     </g>
     <g id="text_4">
      <text style="font-size: 8px; font-family: 'Helvetica', 'Arial', 'DejaVu Sans', sans-serif; text-anchor: end" x="62.476" y="142.359974" transform="rotate(-0 62.476 142.359974)">0.00</text>
     </g>
    </g>
    <g id="ytick_2">
     <g id="line2d_6">
      <path d="M 68.976 104.560212 
L 232.92 104.560212 
" clip-path="url(#p3b41b83f83)" style="fill: none; stroke-dasharray: 0.4,0.66; stroke-dashoffset: 0; stroke: #b0b0b0; stroke-opacity: 0.25; stroke-width: 0.4"/>
     </g>
     <g id="line2d_7">
      <g>
       <use xlink:href="#m958f6b3a39" x="68.976" y="104.560212" style="stroke: #000000; stroke-width: 0.6"/>
      </g>
     </g>
     <g id="text_5">
      <text style="font-size: 8px; font-family: 'Helvetica', 'Arial', 'DejaVu Sans', sans-serif; text-anchor: end" x="62.476" y="107.599587" transform="rotate(-0 62.476 107.599587)">0.15</text>
     </g>
    </g>
    <g id="ytick_3">
     <g id="line2d_8">
      <path d="M 68.976 69.799826 
L 232.92 69.799826 
" clip-path="url(#p3b41b83f83)" style="fill: none; stroke-dasharray: 0.4,0.66; stroke-dashoffset: 0; stroke: #b0b0b0; stroke-opacity: 0.25; stroke-width: 0.4"/>
     </g>
     <g id="line2d_9">
      <g>
       <use xlink:href="#m958f6b3a39" x="68.976" y="69.799826" style="stroke: #000000; stroke-width: 0.6"/>
      </g>
     </g>
     <g id="text_6">
      <text style="font-size: 8px; font-family: 'Helvetica', 'Arial', 'DejaVu Sans', sans-serif; text-anchor: end" x="62.476" y="72.839201" transform="rotate(-0 62.476 72.839201)">0.30</text>
     </g>
    </g>
    <g id="ytick_4">
     <g id="line2d_10">
      <path d="M 68.976 35.03944 
L 232.92 35.03944 
" clip-path="url(#p3b41b83f83)" style="fill: none; stroke-dasharray: 0.4,0.66; stroke-dashoffset: 0; stroke: #b0b0b0; stroke-opacity: 0.25; stroke-width: 0.4"/>
     </g>
     <g id="line2d_11">
      <g>
       <use xlink:href="#m958f6b3a39" x="68.976" y="35.03944" style="stroke: #000000; stroke-width: 0.6"/>
      </g>
     </g>
     <g id="text_7">
      <text style="font-size: 8px; font-family: 'Helvetica', 'Arial', 'DejaVu Sans', sans-serif; text-anchor: end" x="62.476" y="38.078815" transform="rotate(-0 62.476 38.078815)">0.45</text>
     </g>
    </g>
   </g>
   <g id="line2d_12">
    <path d="M 116.137825 109.550729 
L 191.182942 130.715982 
" clip-path="url(#p3b41b83f83)" style="fill: none; stroke: #737373; stroke-opacity: 0.42; stroke-width: 0.7; stroke-linecap: square"/>
   </g>
   <g id="line2d_13">
    <path d="M 113.141427 111.117034 
L 189.998851 127.877761 
" clip-path="url(#p3b41b83f83)" style="fill: none; stroke: #737373; stroke-opacity: 0.42; stroke-width: 0.7; stroke-linecap: square"/>
   </g>
   <g id="line2d_14">
    <path d="M 116.894726 93.711387 
L 186.530107 121.809563 
" clip-path="url(#p3b41b83f83)" style="fill: none; stroke: #737373; stroke-opacity: 0.42; stroke-width: 0.7; stroke-linecap: square"/>
   </g>
   <g id="line2d_15">
    <path d="M 115.452944 100.323042 
L 191.1792 129.975401 
" clip-path="url(#p3b41b83f83)" style="fill: none; stroke: #737373; stroke-opacity: 0.42; stroke-width: 0.7; stroke-linecap: square"/>
   </g>
   <g id="line2d_16">
    <path d="M 110.058972 100.836146 
L 190.933325 124.789144 
" clip-path="url(#p3b41b83f83)" style="fill: none; stroke: #737373; stroke-opacity: 0.42; stroke-width: 0.7; stroke-linecap: square"/>
   </g>
   <g id="line2d_17">
    <path d="M 117.941205 111.744658 
L 187.201787 116.896527 
" clip-path="url(#p3b41b83f83)" style="fill: none; stroke: #737373; stroke-opacity: 0.42; stroke-width: 0.7; stroke-linecap: square"/>
   </g>
   <g id="line2d_18">
    <path d="M 116.023216 104.603029 
L 186.315145 124.345038 
" clip-path="url(#p3b41b83f83)" style="fill: none; stroke: #737373; stroke-opacity: 0.42; stroke-width: 0.7; stroke-linecap: square"/>
   </g>
   <g id="line2d_19">
    <path d="M 116.246101 103.425716 
L 189.839948 127.351748 
" clip-path="url(#p3b41b83f83)" style="fill: none; stroke: #737373; stroke-opacity: 0.42; stroke-width: 0.7; stroke-linecap: square"/>
   </g>
   <g id="line2d_20">
    <path d="M 110.362443 108.939065 
L 184.986523 127.317649 
" clip-path="url(#p3b41b83f83)" style="fill: none; stroke: #737373; stroke-opacity: 0.42; stroke-width: 0.7; stroke-linecap: square"/>
   </g>
   <g id="line2d_21">
    <path d="M 113.244331 114.172425 
L 185.524459 132.933616 
" clip-path="url(#p3b41b83f83)" style="fill: none; stroke: #737373; stroke-opacity: 0.42; stroke-width: 0.7; stroke-linecap: square"/>
   </g>
   <g id="line2d_22">
    <path d="M 112.532624 99.220516 
L 183.802636 130.871184 
" clip-path="url(#p3b41b83f83)" style="fill: none; stroke: #737373; stroke-opacity: 0.42; stroke-width: 0.7; stroke-linecap: square"/>
   </g>
   <g id="line2d_23">
    <path d="M 117.504303 124.424201 
L 190.773793 133.335555 
" clip-path="url(#p3b41b83f83)" style="fill: none; stroke: #737373; stroke-opacity: 0.42; stroke-width: 0.7; stroke-linecap: square"/>
   </g>
   <g id="line2d_24">
    <path d="M 114.974499 97.353358 
L 189.682162 126.184803 
" clip-path="url(#p3b41b83f83)" style="fill: none; stroke: #737373; stroke-opacity: 0.42; stroke-width: 0.7; stroke-linecap: square"/>
   </g>
   <g id="line2d_25">
    <path d="M 116.574263 111.689332 
L 190.042671 128.222355 
" clip-path="url(#p3b41b83f83)" style="fill: none; stroke: #737373; stroke-opacity: 0.42; stroke-width: 0.7; stroke-linecap: square"/>
   </g>
   <g id="line2d_26">
    <path d="M 113.181987 75.374252 
L 190.718391 129.279619 
" clip-path="url(#p3b41b83f83)" style="fill: none; stroke: #737373; stroke-opacity: 0.42; stroke-width: 0.7; stroke-linecap: square"/>
   </g>
   <g id="line2d_27">
    <path d="M 111.24886 84.205061 
L 187.840608 129.588195 
" clip-path="url(#p3b41b83f83)" style="fill: none; stroke: #737373; stroke-opacity: 0.42; stroke-width: 0.7; stroke-linecap: square"/>
   </g>
   <g id="line2d_28">
    <path d="M 114.176119 113.432032 
L 188.822711 141.715974 
" clip-path="url(#p3b41b83f83)" style="fill: none; stroke: #737373; stroke-opacity: 0.42; stroke-width: 0.7; stroke-linecap: square"/>
   </g>
   <g id="line2d_29">
    <path d="M 109.787479 96.141024 
L 184.986921 131.527679 
" clip-path="url(#p3b41b83f83)" style="fill: none; stroke: #737373; stroke-opacity: 0.42; stroke-width: 0.7; stroke-linecap: square"/>
   </g>
   <g id="line2d_30">
    <path d="M 116.617809 19.331004 
L 184.760974 101.873972 
" clip-path="url(#p3b41b83f83)" style="fill: none; stroke: #737373; stroke-opacity: 0.42; stroke-width: 0.7; stroke-linecap: square"/>
   </g>
   <g id="line2d_31">
    <path d="M 114.865396 114.618998 
L 189.713927 138.262619 
" clip-path="url(#p3b41b83f83)" style="fill: none; stroke: #737373; stroke-opacity: 0.42; stroke-width: 0.7; stroke-linecap: square"/>
   </g>
   <g id="line2d_32">
    <path d="M 115.995924 90.311995 
L 187.949531 124.574775 
" clip-path="url(#p3b41b83f83)" style="fill: none; stroke: #737373; stroke-opacity: 0.42; stroke-width: 0.7; stroke-linecap: square"/>
   </g>
   <g id="line2d_33">
    <path d="M 112.387113 71.487364 
L 188.791367 117.323468 
" clip-path="url(#p3b41b83f83)" style="fill: none; stroke: #737373; stroke-opacity: 0.42; stroke-width: 0.7; stroke-linecap: square"/>
   </g>
   <g id="line2d_34">
    <path d="M 117.89717 84.65974 
L 190.577726 119.51641 
" clip-path="url(#p3b41b83f83)" style="fill: none; stroke: #737373; stroke-opacity: 0.42; stroke-width: 0.7; stroke-linecap: square"/>
   </g>
   <g id="line2d_35">
    <path d="M 117.203446 106.122947 
L 189.412705 118.303953 
" clip-path="url(#p3b41b83f83)" style="fill: none; stroke: #737373; stroke-opacity: 0.42; stroke-width: 0.7; stroke-linecap: square"/>
   </g>
   <g id="line2d_36">
    <path d="M 116.177417 87.524037 
L 188.687128 109.072302 
" clip-path="url(#p3b41b83f83)" style="fill: none; stroke: #737373; stroke-opacity: 0.42; stroke-width: 0.7; stroke-linecap: square"/>
   </g>
   <g id="line2d_37">
    <path d="M 110.957337 105.775016 
L 188.737454 141.994237 
" clip-path="url(#p3b41b83f83)" style="fill: none; stroke: #737373; stroke-opacity: 0.42; stroke-width: 0.7; stroke-linecap: square"/>
   </g>
   <g id="line2d_38">
    <path d="M 113.390406 107.920637 
L 186.454843 127.50629 
" clip-path="url(#p3b41b83f83)" style="fill: none; stroke: #737373; stroke-opacity: 0.42; stroke-width: 0.7; stroke-linecap: square"/>
   </g>
   <g id="line2d_39">
    <path d="M 109.608511 109.869815 
L 184.012385 128.474224 
" clip-path="url(#p3b41b83f83)" style="fill: none; stroke: #737373; stroke-opacity: 0.42; stroke-width: 0.7; stroke-linecap: square"/>
   </g>
   <g id="line2d_40">
    <path d="M 110.596518 107.366553 
L 187.642102 130.080328 
" clip-path="url(#p3b41b83f83)" style="fill: none; stroke: #737373; stroke-opacity: 0.42; stroke-width: 0.7; stroke-linecap: square"/>
   </g>
   <g id="line2d_41">
    <path d="M 115.324897 109.576535 
L 185.655702 133.296704 
" clip-path="url(#p3b41b83f83)" style="fill: none; stroke: #737373; stroke-opacity: 0.42; stroke-width: 0.7; stroke-linecap: square"/>
   </g>
   <g id="line2d_42">
    <path d="M 115.876761 122.194607 
L 187.390027 126.454528 
" clip-path="url(#p3b41b83f83)" style="fill: none; stroke: #737373; stroke-opacity: 0.42; stroke-width: 0.7; stroke-linecap: square"/>
   </g>
   <g id="line2d_43">
    <path d="M 117.868659 99.069006 
L 191.368272 121.039168 
" clip-path="url(#p3b41b83f83)" style="fill: none; stroke: #737373; stroke-opacity: 0.42; stroke-width: 0.7; stroke-linecap: square"/>
   </g>
   <g id="line2d_44">
    <path d="M 112.130461 106.633616 
L 185.82878 137.042127 
" clip-path="url(#p3b41b83f83)" style="fill: none; stroke: #737373; stroke-opacity: 0.42; stroke-width: 0.7; stroke-linecap: square"/>
   </g>
   <g id="line2d_45">
    <path d="M 112.529599 92.719218 
L 184.258166 122.860427 
" clip-path="url(#p3b41b83f83)" style="fill: none; stroke: #737373; stroke-opacity: 0.42; stroke-width: 0.7; stroke-linecap: square"/>
   </g>
   <g id="line2d_46">
    <path d="M 113.415756 80.209601 
L 186.253047 134.882982 
" clip-path="url(#p3b41b83f83)" style="fill: none; stroke: #737373; stroke-opacity: 0.42; stroke-width: 0.7; stroke-linecap: square"/>
   </g>
   <g id="line2d_47">
    <path d="M 110.911129 107.173726 
L 186.362233 131.866069 
" clip-path="url(#p3b41b83f83)" style="fill: none; stroke: #737373; stroke-opacity: 0.42; stroke-width: 0.7; stroke-linecap: square"/>
   </g>
   <g id="line2d_48">
    <path d="M 110.37861 104.711596 
L 189.655922 131.422026 
" clip-path="url(#p3b41b83f83)" style="fill: none; stroke: #737373; stroke-opacity: 0.42; stroke-width: 0.7; stroke-linecap: square"/>
   </g>
   <g id="line2d_49">
    <path d="M 113.470744 110.829866 
L 188.718004 132.767878 
" clip-path="url(#p3b41b83f83)" style="fill: none; stroke: #737373; stroke-opacity: 0.42; stroke-width: 0.7; stroke-linecap: square"/>
   </g>
   <g id="line2d_50">
    <path d="M 111.245914 100.176834 
L 190.746731 126.45092 
" clip-path="url(#p3b41b83f83)" style="fill: none; stroke: #737373; stroke-opacity: 0.42; stroke-width: 0.7; stroke-linecap: square"/>
   </g>
   <g id="line2d_51">
    <path d="M 115.206545 129.088157 
L 189.677357 144.872833 
" clip-path="url(#p3b41b83f83)" style="fill: none; stroke: #737373; stroke-opacity: 0.42; stroke-width: 0.7; stroke-linecap: square"/>
   </g>
   <g id="line2d_52">
    <path d="M 113.125987 90.282266 
L 187.370874 138.880534 
" clip-path="url(#p3b41b83f83)" style="fill: none; stroke: #737373; stroke-opacity: 0.42; stroke-width: 0.7; stroke-linecap: square"/>
   </g>
   <g id="patch_3">
    <path d="M 68.976 159.401739 
L 68.976 13.053913 
" style="fill: none; stroke: #000000; stroke-width: 0.6; stroke-linejoin: miter; stroke-linecap: square"/>
   </g>
   <g id="patch_4">
    <path d="M 68.976 159.401739 
L 232.92 159.401739 
" style="fill: none; stroke: #000000; stroke-width: 0.6; stroke-linejoin: miter; stroke-linecap: square"/>
   </g>
   <g id="PathCollection_1">
    <defs>
     <path id="m77e425b80b" d="M 0 1.732051 
C 0.459345 1.732051 0.899939 1.549551 1.224745 1.224745 
C 1.549551 0.899939 1.732051 0.459345 1.732051 0 
C 1.732051 -0.459345 1.549551 -0.899939 1.224745 -1.224745 
C 0.899939 -1.549551 0.459345 -1.732051 0 -1.732051 
C -0.459345 -1.732051 -0.899939 -1.549551 -1.224745 -1.224745 
C -1.549551 -0.899939 -1.732051 -0.459345 -1.732051 0 
C -1.732051 0.459345 -1.549551 0.899939 -1.224745 1.224745 
C -0.899939 1.549551 -0.459345 1.732051 0 1.732051 
z
"/>
    </defs>
    <g clip-path="url(#p3b41b83f83)">
     <use xlink:href="#m77e425b80b" x="116.137825" y="109.550729" style="fill: #1e90ff; fill-opacity: 0.45"/>
     <use xlink:href="#m77e425b80b" x="113.141427" y="111.117034" style="fill: #1e90ff; fill-opacity: 0.45"/>
     <use xlink:href="#m77e425b80b" x="116.894726" y="93.711387" style="fill: #1e90ff; fill-opacity: 0.45"/>
     <use xlink:href="#m77e425b80b" x="115.452944" y="100.323042" style="fill: #1e90ff; fill-opacity: 0.45"/>
     <use xlink:href="#m77e425b80b" x="110.058972" y="100.836146" style="fill: #1e90ff; fill-opacity: 0.45"/>
     <use xlink:href="#m77e425b80b" x="117.941205" y="111.744658" style="fill: #1e90ff; fill-opacity: 0.45"/>
     <use xlink:href="#m77e425b80b" x="116.023216" y="104.603029" style="fill: #1e90ff; fill-opacity: 0.45"/>
     <use xlink:href="#m77e425b80b" x="116.246101" y="103.425716" style="fill: #1e90ff; fill-opacity: 0.45"/>
     <use xlink:href="#m77e425b80b" x="110.362443" y="108.939065" style="fill: #1e90ff; fill-opacity: 0.45"/>
     <use xlink:href="#m77e425b80b" x="113.244331" y="114.172425" style="fill: #1e90ff; fill-opacity: 0.45"/>
     <use xlink:href="#m77e425b80b" x="112.532624" y="99.220516" style="fill: #1e90ff; fill-opacity: 0.45"/>
     <use xlink:href="#m77e425b80b" x="117.504303" y="124.424201" style="fill: #1e90ff; fill-opacity: 0.45"/>
     <use xlink:href="#m77e425b80b" x="114.974499" y="97.353358" style="fill: #1e90ff; fill-opacity: 0.45"/>
     <use xlink:href="#m77e425b80b" x="116.574263" y="111.689332" style="fill: #1e90ff; fill-opacity: 0.45"/>
     <use xlink:href="#m77e425b80b" x="113.181987" y="75.374252" style="fill: #1e90ff; fill-opacity: 0.45"/>
     <use xlink:href="#m77e425b80b" x="111.24886" y="84.205061" style="fill: #1e90ff; fill-opacity: 0.45"/>
     <use xlink:href="#m77e425b80b" x="114.176119" y="113.432032" style="fill: #1e90ff; fill-opacity: 0.45"/>
     <use xlink:href="#m77e425b80b" x="109.787479" y="96.141024" style="fill: #1e90ff; fill-opacity: 0.45"/>
     <use xlink:href="#m77e425b80b" x="116.617809" y="19.331004" style="fill: #1e90ff; fill-opacity: 0.45"/>
     <use xlink:href="#m77e425b80b" x="114.865396" y="114.618998" style="fill: #1e90ff; fill-opacity: 0.45"/>
     <use xlink:href="#m77e425b80b" x="115.995924" y="90.311995" style="fill: #1e90ff; fill-opacity: 0.45"/>
     <use xlink:href="#m77e425b80b" x="112.387113" y="71.487364" style="fill: #1e90ff; fill-opacity: 0.45"/>
     <use xlink:href="#m77e425b80b" x="117.89717" y="84.65974" style="fill: #1e90ff; fill-opacity: 0.45"/>
     <use xlink:href="#m77e425b80b" x="117.203446" y="106.122947" style="fill: #1e90ff; fill-opacity: 0.45"/>
     <use xlink:href="#m77e425b80b" x="116.177417" y="87.524037" style="fill: #1e90ff; fill-opacity: 0.45"/>
     <use xlink:href="#m77e425b80b" x="110.957337" y="105.775016" style="fill: #1e90ff; fill-opacity: 0.45"/>
     <use xlink:href="#m77e425b80b" x="113.390406" y="107.920637" style="fill: #1e90ff; fill-opacity: 0.45"/>
     <use xlink:href="#m77e425b80b" x="109.608511" y="109.869815" style="fill: #1e90ff; fill-opacity: 0.45"/>
     <use xlink:href="#m77e425b80b" x="110.596518" y="107.366553" style="fill: #1e90ff; fill-opacity: 0.45"/>
     <use xlink:href="#m77e425b80b" x="115.324897" y="109.576535" style="fill: #1e90ff; fill-opacity: 0.45"/>
     <use xlink:href="#m77e425b80b" x="115.876761" y="122.194607" style="fill: #1e90ff; fill-opacity: 0.45"/>
     <use xlink:href="#m77e425b80b" x="117.868659" y="99.069006" style="fill: #1e90ff; fill-opacity: 0.45"/>
     <use xlink:href="#m77e425b80b" x="112.130461" y="106.633616" style="fill: #1e90ff; fill-opacity: 0.45"/>
     <use xlink:href="#m77e425b80b" x="112.529599" y="92.719218" style="fill: #1e90ff; fill-opacity: 0.45"/>
     <use xlink:href="#m77e425b80b" x="113.415756" y="80.209601" style="fill: #1e90ff; fill-opacity: 0.45"/>
     <use xlink:href="#m77e425b80b" x="110.911129" y="107.173726" style="fill: #1e90ff; fill-opacity: 0.45"/>
     <use xlink:href="#m77e425b80b" x="110.37861" y="104.711596" style="fill: #1e90ff; fill-opacity: 0.45"/>
     <use xlink:href="#m77e425b80b" x="113.470744" y="110.829866" style="fill: #1e90ff; fill-opacity: 0.45"/>
     <use xlink:href="#m77e425b80b" x="111.245914" y="100.176834" style="fill: #1e90ff; fill-opacity: 0.45"/>
     <use xlink:href="#m77e425b80b" x="115.206545" y="129.088157" style="fill: #1e90ff; fill-opacity: 0.45"/>
     <use xlink:href="#m77e425b80b" x="113.125987" y="90.282266" style="fill: #1e90ff; fill-opacity: 0.45"/>
    </g>
   </g>
   <g id="PathCollection_2">
    <defs>
     <path id="m67ccaa2027" d="M 0 1.732051 
C 0.459345 1.732051 0.899939 1.549551 1.224745 1.224745 
C 1.549551 0.899939 1.732051 0.459345 1.732051 0 
C 1.732051 -0.459345 1.549551 -0.899939 1.224745 -1.224745 
C 0.899939 -1.549551 0.459345 -1.732051 0 -1.732051 
C -0.459345 -1.732051 -0.899939 -1.549551 -1.224745 -1.224745 
C -1.549551 -0.899939 -1.732051 -0.459345 -1.732051 0 
C -1.732051 0.459345 -1.549551 0.899939 -1.224745 1.224745 
C -0.899939 1.549551 -0.459345 1.732051 0 1.732051 
z
"/>
    </defs>
    <g clip-path="url(#p3b41b83f83)">
     <use xlink:href="#m67ccaa2027" x="191.182942" y="130.715982" style="fill: #dc143c; fill-opacity: 0.45"/>
     <use xlink:href="#m67ccaa2027" x="189.998851" y="127.877761" style="fill: #dc143c; fill-opacity: 0.45"/>
     <use xlink:href="#m67ccaa2027" x="186.530107" y="121.809563" style="fill: #dc143c; fill-opacity: 0.45"/>
     <use xlink:href="#m67ccaa2027" x="191.1792" y="129.975401" style="fill: #dc143c; fill-opacity: 0.45"/>
     <use xlink:href="#m67ccaa2027" x="190.933325" y="124.789144" style="fill: #dc143c; fill-opacity: 0.45"/>
     <use xlink:href="#m67ccaa2027" x="187.201787" y="116.896527" style="fill: #dc143c; fill-opacity: 0.45"/>
     <use xlink:href="#m67ccaa2027" x="186.315145" y="124.345038" style="fill: #dc143c; fill-opacity: 0.45"/>
     <use xlink:href="#m67ccaa2027" x="189.839948" y="127.351748" style="fill: #dc143c; fill-opacity: 0.45"/>
     <use xlink:href="#m67ccaa2027" x="184.986523" y="127.317649" style="fill: #dc143c; fill-opacity: 0.45"/>
     <use xlink:href="#m67ccaa2027" x="185.524459" y="132.933616" style="fill: #dc143c; fill-opacity: 0.45"/>
     <use xlink:href="#m67ccaa2027" x="183.802636" y="130.871184" style="fill: #dc143c; fill-opacity: 0.45"/>
     <use xlink:href="#m67ccaa2027" x="190.773793" y="133.335555" style="fill: #dc143c; fill-opacity: 0.45"/>
     <use xlink:href="#m67ccaa2027" x="189.682162" y="126.184803" style="fill: #dc143c; fill-opacity: 0.45"/>
     <use xlink:href="#m67ccaa2027" x="190.042671" y="128.222355" style="fill: #dc143c; fill-opacity: 0.45"/>
     <use xlink:href="#m67ccaa2027" x="190.718391" y="129.279619" style="fill: #dc143c; fill-opacity: 0.45"/>
     <use xlink:href="#m67ccaa2027" x="187.840608" y="129.588195" style="fill: #dc143c; fill-opacity: 0.45"/>
     <use xlink:href="#m67ccaa2027" x="188.822711" y="141.715974" style="fill: #dc143c; fill-opacity: 0.45"/>
     <use xlink:href="#m67ccaa2027" x="184.986921" y="131.527679" style="fill: #dc143c; fill-opacity: 0.45"/>
     <use xlink:href="#m67ccaa2027" x="184.760974" y="101.873972" style="fill: #dc143c; fill-opacity: 0.45"/>
     <use xlink:href="#m67ccaa2027" x="189.713927" y="138.262619" style="fill: #dc143c; fill-opacity: 0.45"/>
     <use xlink:href="#m67ccaa2027" x="187.949531" y="124.574775" style="fill: #dc143c; fill-opacity: 0.45"/>
     <use xlink:href="#m67ccaa2027" x="188.791367" y="117.323468" style="fill: #dc143c; fill-opacity: 0.45"/>
     <use xlink:href="#m67ccaa2027" x="190.577726" y="119.51641" style="fill: #dc143c; fill-opacity: 0.45"/>
     <use xlink:href="#m67ccaa2027" x="189.412705" y="118.303953" style="fill: #dc143c; fill-opacity: 0.45"/>
     <use xlink:href="#m67ccaa2027" x="188.687128" y="109.072302" style="fill: #dc143c; fill-opacity: 0.45"/>
     <use xlink:href="#m67ccaa2027" x="188.737454" y="141.994237" style="fill: #dc143c; fill-opacity: 0.45"/>
     <use xlink:href="#m67ccaa2027" x="186.454843" y="127.50629" style="fill: #dc143c; fill-opacity: 0.45"/>
     <use xlink:href="#m67ccaa2027" x="184.012385" y="128.474224" style="fill: #dc143c; fill-opacity: 0.45"/>
     <use xlink:href="#m67ccaa2027" x="187.642102" y="130.080328" style="fill: #dc143c; fill-opacity: 0.45"/>
     <use xlink:href="#m67ccaa2027" x="185.655702" y="133.296704" style="fill: #dc143c; fill-opacity: 0.45"/>
     <use xlink:href="#m67ccaa2027" x="187.390027" y="126.454528" style="fill: #dc143c; fill-opacity: 0.45"/>
     <use xlink:href="#m67ccaa2027" x="191.368272" y="121.039168" style="fill: #dc143c; fill-opacity: 0.45"/>
     <use xlink:href="#m67ccaa2027" x="185.82878" y="137.042127" style="fill: #dc143c; fill-opacity: 0.45"/>
     <use xlink:href="#m67ccaa2027" x="184.258166" y="122.860427" style="fill: #dc143c; fill-opacity: 0.45"/>
     <use xlink:href="#m67ccaa2027" x="186.253047" y="134.882982" style="fill: #dc143c; fill-opacity: 0.45"/>
     <use xlink:href="#m67ccaa2027" x="186.362233" y="131.866069" style="fill: #dc143c; fill-opacity: 0.45"/>
     <use xlink:href="#m67ccaa2027" x="189.655922" y="131.422026" style="fill: #dc143c; fill-opacity: 0.45"/>
     <use xlink:href="#m67ccaa2027" x="188.718004" y="132.767878" style="fill: #dc143c; fill-opacity: 0.45"/>
     <use xlink:href="#m67ccaa2027" x="190.746731" y="126.45092" style="fill: #dc143c; fill-opacity: 0.45"/>
     <use xlink:href="#m67ccaa2027" x="189.677357" y="144.872833" style="fill: #dc143c; fill-opacity: 0.45"/>
     <use xlink:href="#m67ccaa2027" x="187.370874" y="138.880534" style="fill: #dc143c; fill-opacity: 0.45"/>
    </g>
   </g>
   <g id="text_8">
    <text style="font-weight: 700; font-size: 10px; font-family: 'Helvetica', 'Arial', 'DejaVu Sans', sans-serif; text-anchor: start" x="32.90832" y="14.798437" transform="rotate(-0 32.90832 14.798437)">A</text>
   </g>
   <g id="line2d_53">
    <path d="M 113.688 109.869815 
L 113.688 93.711387 
" clip-path="url(#p3b41b83f83)" style="fill: none; stroke: #1e90ff; stroke-width: 2.2; stroke-linecap: round"/>
   </g>
   <g id="line2d_54">
    <path d="M 188.208 132.767878 
L 188.208 124.574775 
" clip-path="url(#p3b41b83f83)" style="fill: none; stroke: #dc143c; stroke-width: 2.2; stroke-linecap: round"/>
   </g>
   <g id="PathCollection_3">
    <defs>
     <path id="m53e9c15e33" d="M 0 2.12132 
C 0.562581 2.12132 1.102195 1.897805 1.5 1.5 
C 1.897805 1.102195 2.12132 0.562581 2.12132 0 
C 2.12132 -0.562581 1.897805 -1.102195 1.5 -1.5 
C 1.102195 -1.897805 0.562581 -2.12132 0 -2.12132 
C -0.562581 -2.12132 -1.102195 -1.897805 -1.5 -1.5 
C -1.897805 -1.102195 -2.12132 -0.562581 -2.12132 0 
C -2.12132 0.562581 -1.897805 1.102195 -1.5 1.5 
C -1.102195 1.897805 -0.562581 2.12132 0 2.12132 
z
" style="stroke: #1e90ff; stroke-width: 0.8"/>
    </defs>
    <g clip-path="url(#p3b41b83f83)">
     <use xlink:href="#m53e9c15e33" x="113.688" y="104.711596" style="fill: #ffffff; stroke: #1e90ff; stroke-width: 0.8"/>
    </g>
   </g>
   <g id="PathCollection_4">
    <defs>
     <path id="m01bbbe34d7" d="M 0 2.12132 
C 0.562581 2.12132 1.102195 1.897805 1.5 1.5 
C 1.897805 1.102195 2.12132 0.562581 2.12132 0 
C 2.12132 -0.562581 1.897805 -1.102195 1.5 -1.5 
C 1.102195 -1.897805 0.562581 -2.12132 0 -2.12132 
C -0.562581 -2.12132 -1.102195 -1.897805 -1.5 -1.5 
C -1.897805 -1.102195 -2.12132 -0.562581 -2.12132 0 
C -2.12132 0.562581 -1.897805 1.102195 -1.5 1.5 
C -1.102195 1.897805 -0.562581 2.12132 0 2.12132 
z
" style="stroke: #dc143c; stroke-width: 0.8"/>
    </defs>
    <g clip-path="url(#p3b41b83f83)">
     <use xlink:href="#m01bbbe34d7" x="188.208" y="128.474224" style="fill: #ffffff; stroke: #dc143c; stroke-width: 0.8"/>
    </g>
   </g>
  </g>
  <g id="axes_2">
   <g id="patch_5">
    <path d="M 68.976 349.653913 
L 232.92 349.653913 
L 232.92 203.306087 
L 68.976 203.306087 
z
" style="fill: #ffffff"/>
   </g>
   <g id="FillBetweenPolyCollection_3">
    <defs>
     <path id="m9fb03de4e2" d="M 122.09318 -49.094155 
L 105.28282 -49.094155 
L 104.183241 -50.323997 
L 103.041477 -51.553838 
L 101.874784 -52.78368 
L 100.702784 -54.013521 
L 99.546845 -55.243363 
L 98.429334 -56.473204 
L 97.372756 -57.703046 
L 96.398855 -58.932887 
L 95.527718 -60.162729 
L 94.776939 -61.39257 
L 94.160915 -62.622412 
L 93.690291 -63.852253 
L 93.371604 -65.082095 
L 93.207141 -66.311936 
L 93.195 -67.541778 
L 93.329352 -68.771619 
L 93.600874 -70.001461 
L 93.997316 -71.231302 
L 94.504159 -72.461144 
L 95.105331 -73.690986 
L 95.783924 -74.920827 
L 96.522882 -76.150669 
L 97.305626 -77.38051 
L 98.116585 -78.610352 
L 98.941613 -79.840193 
L 99.768284 -81.070035 
L 100.586063 -82.299876 
L 101.386343 -83.529718 
L 102.162382 -84.759559 
L 102.909143 -85.989401 
L 103.623066 -87.219242 
L 104.301793 -88.449084 
L 104.943893 -89.678925 
L 105.548592 -90.908767 
L 106.115547 -92.138608 
L 106.644677 -93.36845 
L 107.136058 -94.598291 
L 107.589898 -95.828133 
L 108.00656 -97.057974 
L 108.386645 -98.287816 
L 108.731098 -99.517657 
L 109.041315 -100.747499 
L 109.319241 -101.97734 
L 109.567419 -103.207182 
L 109.788989 -104.437023 
L 109.987632 -105.666865 
L 110.16744 -106.896706 
L 110.332749 -108.126548 
L 110.487925 -109.356389 
L 110.637134 -110.586231 
L 110.784122 -111.816072 
L 110.932015 -113.045914 
L 111.083168 -114.275755 
L 111.239066 -115.505597 
L 111.4003 -116.735438 
L 111.566593 -117.96528 
L 111.736903 -119.195121 
L 111.909559 -120.424963 
L 112.08244 -121.654804 
L 112.253166 -122.884646 
L 112.419287 -124.114487 
L 112.578465 -125.344329 
L 112.728615 -126.57417 
L 112.86802 -127.804012 
L 112.995401 -129.033853 
L 113.109946 -130.263695 
L 113.211303 -131.493536 
L 113.299541 -132.723378 
L 113.375085 -133.953219 
L 113.438639 -135.183061 
L 113.491103 -136.412902 
L 113.533479 -137.642744 
L 113.566799 -138.872585 
L 113.592052 -140.102427 
L 113.610128 -141.332268 
L 113.621775 -142.56211 
L 113.627578 -143.791951 
L 113.627947 -145.021793 
L 113.62312 -146.251635 
L 113.613185 -147.481476 
L 113.598111 -148.711318 
L 113.577788 -149.941159 
L 113.552084 -151.171001 
L 113.520893 -152.400842 
L 113.484207 -153.630684 
L 113.442166 -154.860525 
L 113.395116 -156.090367 
L 113.343654 -157.320208 
L 113.288649 -158.55005 
L 113.231253 -159.779891 
L 113.172887 -161.009733 
L 113.115191 -162.239574 
L 113.059969 -163.469416 
L 113.009095 -164.699257 
L 112.964415 -165.929099 
L 112.927639 -167.15894 
L 112.90023 -168.388782 
L 112.883313 -169.618623 
L 112.877594 -170.848465 
L 114.498406 -170.848465 
L 114.498406 -170.848465 
L 114.492687 -169.618623 
L 114.47577 -168.388782 
L 114.448361 -167.15894 
L 114.411585 -165.929099 
L 114.366905 -164.699257 
L 114.316031 -163.469416 
L 114.260809 -162.239574 
L 114.203113 -161.009733 
L 114.144747 -159.779891 
L 114.087351 -158.55005 
L 114.032346 -157.320208 
L 113.980884 -156.090367 
L 113.933834 -154.860525 
L 113.891793 -153.630684 
L 113.855107 -152.400842 
L 113.823916 -151.171001 
L 113.798212 -149.941159 
L 113.777889 -148.711318 
L 113.762815 -147.481476 
L 113.75288 -146.251635 
L 113.748053 -145.021793 
L 113.748422 -143.791951 
L 113.754225 -142.56211 
L 113.765872 -141.332268 
L 113.783948 -140.102427 
L 113.809201 -138.872585 
L 113.842521 -137.642744 
L 113.884897 -136.412902 
L 113.937361 -135.183061 
L 114.000915 -133.953219 
L 114.076459 -132.723378 
L 114.164697 -131.493536 
L 114.266054 -130.263695 
L 114.380599 -129.033853 
L 114.50798 -127.804012 
L 114.647385 -126.57417 
L 114.797535 -125.344329 
L 114.956713 -124.114487 
L 115.122834 -122.884646 
L 115.29356 -121.654804 
L 115.466441 -120.424963 
L 115.639097 -119.195121 
L 115.809407 -117.96528 
L 115.9757 -116.735438 
L 116.136934 -115.505597 
L 116.292832 -114.275755 
L 116.443985 -113.045914 
L 116.591878 -111.816072 
L 116.738866 -110.586231 
L 116.888075 -109.356389 
L 117.043251 -108.126548 
L 117.20856 -106.896706 
L 117.388368 -105.666865 
L 117.587011 -104.437023 
L 117.808581 -103.207182 
L 118.056759 -101.97734 
L 118.334685 -100.747499 
L 118.644902 -99.517657 
L 118.989355 -98.287816 
L 119.36944 -97.057974 
L 119.786102 -95.828133 
L 120.239942 -94.598291 
L 120.731323 -93.36845 
L 121.260453 -92.138608 
L 121.827408 -90.908767 
L 122.432107 -89.678925 
L 123.074207 -88.449084 
L 123.752934 -87.219242 
L 124.466857 -85.989401 
L 125.213618 -84.759559 
L 125.989657 -83.529718 
L 126.789937 -82.299876 
L 127.607716 -81.070035 
L 128.434387 -79.840193 
L 129.259415 -78.610352 
L 130.070374 -77.38051 
L 130.853118 -76.150669 
L 131.592076 -74.920827 
L 132.270669 -73.690986 
L 132.871841 -72.461144 
L 133.378684 -71.231302 
L 133.775126 -70.001461 
L 134.046648 -68.771619 
L 134.181 -67.541778 
L 134.168859 -66.311936 
L 134.004396 -65.082095 
L 133.685709 -63.852253 
L 133.215085 -62.622412 
L 132.599061 -61.39257 
L 131.848282 -60.162729 
L 130.977145 -58.932887 
L 130.003244 -57.703046 
L 128.946666 -56.473204 
L 127.829155 -55.243363 
L 126.673216 -54.013521 
L 125.501216 -52.78368 
L 124.334523 -51.553838 
L 123.192759 -50.323997 
L 122.09318 -49.094155 
z
" style="stroke: #1e90ff; stroke-opacity: 0.55; stroke-width: 0.8"/>
    </defs>
    <g clip-path="url(#pcdf601bcf0)">
     <use xlink:href="#m9fb03de4e2" x="0" y="380.806726" style="fill: #1e90ff; fill-opacity: 0.55; stroke: #1e90ff; stroke-opacity: 0.55; stroke-width: 0.8"/>
    </g>
   </g>
   <g id="FillBetweenPolyCollection_4">
    <path d="M 190.195322 343.001739 
L 186.220678 343.001739 
L 186.102322 342.497003 
L 186.000639 341.992267 
L 185.915826 341.48753 
L 185.846451 340.982794 
L 185.789309 340.478058 
L 185.739348 339.973322 
L 185.689705 339.468586 
L 185.631814 338.963849 
L 185.555619 338.459113 
L 185.449854 337.954377 
L 185.302408 337.449641 
L 185.100747 336.944905 
L 184.832406 336.440168 
L 184.485537 335.935432 
L 184.049507 335.430696 
L 183.515534 334.92596 
L 182.877349 334.421224 
L 182.131847 333.916487 
L 181.279697 333.411751 
L 180.325847 332.907015 
L 179.279884 332.402279 
L 178.156173 331.897542 
L 176.973738 331.392806 
L 175.755844 330.88807 
L 174.52927 330.383334 
L 173.3233 329.878598 
L 172.168475 329.373861 
L 171.095197 328.869125 
L 170.132283 328.364389 
L 169.305585 327.859653 
L 168.636791 327.354917 
L 168.142487 326.85018 
L 167.833568 326.345444 
L 167.715 325.840708 
L 167.785951 325.335972 
L 168.040222 324.831236 
L 168.466929 324.326499 
L 169.051329 323.821763 
L 169.775719 323.317027 
L 170.620311 322.812291 
L 171.564031 322.307554 
L 172.585202 321.802818 
L 173.662101 321.298082 
L 174.7734 320.793346 
L 175.898522 320.28861 
L 177.017946 319.783873 
L 178.113491 319.279137 
L 179.16861 318.774401 
L 180.168699 318.269665 
L 181.101416 317.764929 
L 181.956979 317.260192 
L 182.72843 316.755456 
L 183.4118 316.25072 
L 184.006171 315.745984 
L 184.513583 315.241247 
L 184.938798 314.736511 
L 185.288915 314.231775 
L 185.572857 313.727039 
L 185.800781 313.222303 
L 185.983437 312.717566 
L 186.131534 312.21283 
L 186.255168 311.708094 
L 186.363333 311.203358 
L 186.463561 310.698622 
L 186.561702 310.193885 
L 186.661838 309.689149 
L 186.766345 309.184413 
L 186.876049 308.679677 
L 186.990485 308.174941 
L 187.108194 307.670204 
L 187.227054 307.165468 
L 187.344588 306.660732 
L 187.45825 306.155996 
L 187.565647 305.651259 
L 187.66471 305.146523 
L 187.753784 304.641787 
L 187.831669 304.137051 
L 187.897601 303.632315 
L 187.9512 303.127578 
L 187.992392 302.622842 
L 188.021326 302.118106 
L 188.0383 301.61337 
L 188.043706 301.108634 
L 188.037999 300.603897 
L 188.021701 300.099161 
L 187.995429 299.594425 
L 187.959939 299.089689 
L 187.916193 298.584953 
L 187.865413 298.080216 
L 187.809127 297.57548 
L 187.749187 297.070744 
L 187.687751 296.566008 
L 187.627224 296.061271 
L 187.570153 295.556535 
L 187.519101 295.051799 
L 187.476478 294.547063 
L 187.444383 294.042327 
L 187.424449 293.53759 
L 187.417711 293.032854 
L 188.998289 293.032854 
L 188.998289 293.032854 
L 188.991551 293.53759 
L 188.971617 294.042327 
L 188.939522 294.547063 
L 188.896899 295.051799 
L 188.845847 295.556535 
L 188.788776 296.061271 
L 188.728249 296.566008 
L 188.666813 297.070744 
L 188.606873 297.57548 
L 188.550587 298.080216 
L 188.499807 298.584953 
L 188.456061 299.089689 
L 188.420571 299.594425 
L 188.394299 300.099161 
L 188.378001 300.603897 
L 188.372294 301.108634 
L 188.3777 301.61337 
L 188.394674 302.118106 
L 188.423608 302.622842 
L 188.4648 303.127578 
L 188.518399 303.632315 
L 188.584331 304.137051 
L 188.662216 304.641787 
L 188.75129 305.146523 
L 188.850353 305.651259 
L 188.95775 306.155996 
L 189.071412 306.660732 
L 189.188946 307.165468 
L 189.307806 307.670204 
L 189.425515 308.174941 
L 189.539951 308.679677 
L 189.649655 309.184413 
L 189.754162 309.689149 
L 189.854298 310.193885 
L 189.952439 310.698622 
L 190.052667 311.203358 
L 190.160832 311.708094 
L 190.284466 312.21283 
L 190.432563 312.717566 
L 190.615219 313.222303 
L 190.843143 313.727039 
L 191.127085 314.231775 
L 191.477202 314.736511 
L 191.902417 315.241247 
L 192.409829 315.745984 
L 193.0042 316.25072 
L 193.68757 316.755456 
L 194.459021 317.260192 
L 195.314584 317.764929 
L 196.247301 318.269665 
L 197.24739 318.774401 
L 198.302509 319.279137 
L 199.398054 319.783873 
L 200.517478 320.28861 
L 201.6426 320.793346 
L 202.753899 321.298082 
L 203.830798 321.802818 
L 204.851969 322.307554 
L 205.795689 322.812291 
L 206.640281 323.317027 
L 207.364671 323.821763 
L 207.949071 324.326499 
L 208.375778 324.831236 
L 208.630049 325.335972 
L 208.701 325.840708 
L 208.582432 326.345444 
L 208.273513 326.85018 
L 207.779209 327.354917 
L 207.110415 327.859653 
L 206.283717 328.364389 
L 205.320803 328.869125 
L 204.247525 329.373861 
L 203.0927 329.878598 
L 201.88673 330.383334 
L 200.660156 330.88807 
L 199.442262 331.392806 
L 198.259827 331.897542 
L 197.136116 332.402279 
L 196.090153 332.907015 
L 195.136303 333.411751 
L 194.284153 333.916487 
L 193.538651 334.421224 
L 192.900466 334.92596 
L 192.366493 335.430696 
L 191.930463 335.935432 
L 191.583594 336.440168 
L 191.315253 336.944905 
L 191.113592 337.449641 
L 190.966146 337.954377 
L 190.860381 338.459113 
L 190.784186 338.963849 
L 190.726295 339.468586 
L 190.676652 339.973322 
L 190.626691 340.478058 
L 190.569549 340.982794 
L 190.500174 341.48753 
L 190.415361 341.992267 
L 190.313678 342.497003 
L 190.195322 343.001739 
z
" clip-path="url(#pcdf601bcf0)" style="fill: url(#hd2bdf66020); fill-opacity: 0.45; stroke: #dc143c; stroke-opacity: 0.45; stroke-width: 0.8"/>
   </g>
   <g id="line2d_55">
    <path d="M 68.976 329.572773 
L 232.92 329.572773 
" clip-path="url(#pcdf601bcf0)" style="fill: none; stroke-dasharray: 1.85,0.8; stroke-dashoffset: 0; stroke: #000000; stroke-opacity: 0.5; stroke-width: 0.5"/>
   </g>
   <g id="matplotlib.axis_3">
    <g id="xtick_3">
     <g id="line2d_56"/>
     <g id="text_9">
      <text style="font-size: 8px; font-family: 'Helvetica', 'Arial', 'DejaVu Sans', sans-serif; text-anchor: middle" x="113.688" y="359.232663" transform="rotate(-0 113.688 359.232663)">cNF</text>
     </g>
    </g>
    <g id="xtick_4">
     <g id="line2d_57"/>
     <g id="text_10">
      <text style="font-size: 8px; font-family: 'Helvetica', 'Arial', 'DejaVu Sans', sans-serif; text-anchor: middle" x="188.208" y="359.232663" transform="rotate(-0 188.208 359.232663)">NF</text>
     </g>
    </g>
    <g id="text_11">
     <text style="font-size: 9px; font-family: 'Helvetica', 'Arial', 'DejaVu Sans', sans-serif; text-anchor: middle" x="150.948" y="371.735007" transform="rotate(-0 150.948 371.735007)">Average Estimate Error (MAE)</text>
    </g>
   </g>
   <g id="matplotlib.axis_4">
    <g id="ytick_5">
     <g id="line2d_58">
      <path d="M 68.976 329.572773 
L 232.92 329.572773 
" clip-path="url(#pcdf601bcf0)" style="fill: none; stroke-dasharray: 0.4,0.66; stroke-dashoffset: 0; stroke: #b0b0b0; stroke-opacity: 0.25; stroke-width: 0.4"/>
     </g>
     <g id="line2d_59">
      <g>
       <use xlink:href="#m958f6b3a39" x="68.976" y="329.572773" style="stroke: #000000; stroke-width: 0.6"/>
      </g>
     </g>
     <g id="text_12">
      <text style="font-size: 8px; font-family: 'Helvetica', 'Arial', 'DejaVu Sans', sans-serif; text-anchor: end" x="62.476" y="332.612148" transform="rotate(-0 62.476 332.612148)">0.00</text>
     </g>
    </g>
    <g id="ytick_6">
     <g id="line2d_60">
      <path d="M 68.976 299.828534 
L 232.92 299.828534 
" clip-path="url(#pcdf601bcf0)" style="fill: none; stroke-dasharray: 0.4,0.66; stroke-dashoffset: 0; stroke: #b0b0b0; stroke-opacity: 0.25; stroke-width: 0.4"/>
     </g>
     <g id="line2d_61">
      <g>
       <use xlink:href="#m958f6b3a39" x="68.976" y="299.828534" style="stroke: #000000; stroke-width: 0.6"/>
      </g>
     </g>
     <g id="text_13">
      <text style="font-size: 8px; font-family: 'Helvetica', 'Arial', 'DejaVu Sans', sans-serif; text-anchor: end" x="62.476" y="302.867909" transform="rotate(-0 62.476 302.867909)">0.80</text>
     </g>
    </g>
    <g id="ytick_7">
     <g id="line2d_62">
      <path d="M 68.976 270.084296 
L 232.92 270.084296 
" clip-path="url(#pcdf601bcf0)" style="fill: none; stroke-dasharray: 0.4,0.66; stroke-dashoffset: 0; stroke: #b0b0b0; stroke-opacity: 0.25; stroke-width: 0.4"/>
     </g>
     <g id="line2d_63">
      <g>
       <use xlink:href="#m958f6b3a39" x="68.976" y="270.084296" style="stroke: #000000; stroke-width: 0.6"/>
      </g>
     </g>
     <g id="text_14">
      <text style="font-size: 8px; font-family: 'Helvetica', 'Arial', 'DejaVu Sans', sans-serif; text-anchor: end" x="62.476" y="273.123671" transform="rotate(-0 62.476 273.123671)">1.60</text>
     </g>
    </g>
    <g id="ytick_8">
     <g id="line2d_64">
      <path d="M 68.976 240.340058 
L 232.92 240.340058 
" clip-path="url(#pcdf601bcf0)" style="fill: none; stroke-dasharray: 0.4,0.66; stroke-dashoffset: 0; stroke: #b0b0b0; stroke-opacity: 0.25; stroke-width: 0.4"/>
     </g>
     <g id="line2d_65">
      <g>
       <use xlink:href="#m958f6b3a39" x="68.976" y="240.340058" style="stroke: #000000; stroke-width: 0.6"/>
      </g>
     </g>
     <g id="text_15">
      <text style="font-size: 8px; font-family: 'Helvetica', 'Arial', 'DejaVu Sans', sans-serif; text-anchor: end" x="62.476" y="243.379433" transform="rotate(-0 62.476 243.379433)">2.40</text>
     </g>
    </g>
    <g id="ytick_9">
     <g id="line2d_66">
      <path d="M 68.976 210.59582 
L 232.92 210.59582 
" clip-path="url(#pcdf601bcf0)" style="fill: none; stroke-dasharray: 0.4,0.66; stroke-dashoffset: 0; stroke: #b0b0b0; stroke-opacity: 0.25; stroke-width: 0.4"/>
     </g>
     <g id="line2d_67">
      <g>
       <use xlink:href="#m958f6b3a39" x="68.976" y="210.59582" style="stroke: #000000; stroke-width: 0.6"/>
      </g>
     </g>
     <g id="text_16">
      <text style="font-size: 8px; font-family: 'Helvetica', 'Arial', 'DejaVu Sans', sans-serif; text-anchor: end" x="62.476" y="213.635195" transform="rotate(-0 62.476 213.635195)">3.20</text>
     </g>
    </g>
   </g>
   <g id="line2d_68">
    <path d="M 116.137825 306.580133 
L 191.182942 323.486546 
" clip-path="url(#pcdf601bcf0)" style="fill: none; stroke: #737373; stroke-opacity: 0.42; stroke-width: 0.7; stroke-linecap: square"/>
   </g>
   <g id="line2d_69">
    <path d="M 113.141427 322.243709 
L 189.998851 328.308467 
" clip-path="url(#pcdf601bcf0)" style="fill: none; stroke: #737373; stroke-opacity: 0.42; stroke-width: 0.7; stroke-linecap: square"/>
   </g>
   <g id="line2d_70">
    <path d="M 116.894726 312.703855 
L 186.530107 320.983779 
" clip-path="url(#pcdf601bcf0)" style="fill: none; stroke: #737373; stroke-opacity: 0.42; stroke-width: 0.7; stroke-linecap: square"/>
   </g>
   <g id="line2d_71">
    <path d="M 115.452944 312.209375 
L 191.1792 326.723243 
" clip-path="url(#pcdf601bcf0)" style="fill: none; stroke: #737373; stroke-opacity: 0.42; stroke-width: 0.7; stroke-linecap: square"/>
   </g>
   <g id="line2d_72">
    <path d="M 110.058972 317.966517 
L 190.933325 325.752642 
" clip-path="url(#pcdf601bcf0)" style="fill: none; stroke: #737373; stroke-opacity: 0.42; stroke-width: 0.7; stroke-linecap: square"/>
   </g>
   <g id="line2d_73">
    <path d="M 117.941205 319.81501 
L 187.201787 320.809428 
" clip-path="url(#pcdf601bcf0)" style="fill: none; stroke: #737373; stroke-opacity: 0.42; stroke-width: 0.7; stroke-linecap: square"/>
   </g>
   <g id="line2d_74">
    <path d="M 116.023216 318.344985 
L 186.315145 326.428755 
" clip-path="url(#pcdf601bcf0)" style="fill: none; stroke: #737373; stroke-opacity: 0.42; stroke-width: 0.7; stroke-linecap: square"/>
   </g>
   <g id="line2d_75">
    <path d="M 116.246101 297.511933 
L 189.839948 321.538428 
" clip-path="url(#pcdf601bcf0)" style="fill: none; stroke: #737373; stroke-opacity: 0.42; stroke-width: 0.7; stroke-linecap: square"/>
   </g>
   <g id="line2d_76">
    <path d="M 110.362443 311.443408 
L 184.986523 324.980229 
" clip-path="url(#pcdf601bcf0)" style="fill: none; stroke: #737373; stroke-opacity: 0.42; stroke-width: 0.7; stroke-linecap: square"/>
   </g>
   <g id="line2d_77">
    <path d="M 113.244331 308.190702 
L 185.524459 324.08214 
" clip-path="url(#pcdf601bcf0)" style="fill: none; stroke: #737373; stroke-opacity: 0.42; stroke-width: 0.7; stroke-linecap: square"/>
   </g>
   <g id="line2d_78">
    <path d="M 112.532624 293.258367 
L 183.802636 325.52118 
" clip-path="url(#pcdf601bcf0)" style="fill: none; stroke: #737373; stroke-opacity: 0.42; stroke-width: 0.7; stroke-linecap: square"/>
   </g>
   <g id="line2d_79">
    <path d="M 117.504303 322.277071 
L 190.773793 328.73148 
" clip-path="url(#pcdf601bcf0)" style="fill: none; stroke: #737373; stroke-opacity: 0.42; stroke-width: 0.7; stroke-linecap: square"/>
   </g>
   <g id="line2d_80">
    <path d="M 114.974499 314.862724 
L 189.682162 326.633745 
" clip-path="url(#pcdf601bcf0)" style="fill: none; stroke: #737373; stroke-opacity: 0.42; stroke-width: 0.7; stroke-linecap: square"/>
   </g>
   <g id="line2d_81">
    <path d="M 116.574263 299.525142 
L 190.042671 320.026461 
" clip-path="url(#pcdf601bcf0)" style="fill: none; stroke: #737373; stroke-opacity: 0.42; stroke-width: 0.7; stroke-linecap: square"/>
   </g>
   <g id="line2d_82">
    <path d="M 113.181987 268.702046 
L 190.718391 319.406485 
" clip-path="url(#pcdf601bcf0)" style="fill: none; stroke: #737373; stroke-opacity: 0.42; stroke-width: 0.7; stroke-linecap: square"/>
   </g>
   <g id="line2d_83">
    <path d="M 111.24886 264.204393 
L 187.840608 324.912479 
" clip-path="url(#pcdf601bcf0)" style="fill: none; stroke: #737373; stroke-opacity: 0.42; stroke-width: 0.7; stroke-linecap: square"/>
   </g>
   <g id="line2d_84">
    <path d="M 114.176119 287.374047 
L 188.822711 343.001739 
" clip-path="url(#pcdf601bcf0)" style="fill: none; stroke: #737373; stroke-opacity: 0.42; stroke-width: 0.7; stroke-linecap: square"/>
   </g>
   <g id="line2d_85">
    <path d="M 109.787479 294.469646 
L 184.986921 321.963501 
" clip-path="url(#pcdf601bcf0)" style="fill: none; stroke: #737373; stroke-opacity: 0.42; stroke-width: 0.7; stroke-linecap: square"/>
   </g>
   <g id="line2d_86">
    <path d="M 116.617809 209.958261 
L 184.760974 293.032854 
" clip-path="url(#pcdf601bcf0)" style="fill: none; stroke: #737373; stroke-opacity: 0.42; stroke-width: 0.7; stroke-linecap: square"/>
   </g>
   <g id="line2d_87">
    <path d="M 114.865396 331.71257 
L 189.713927 338.801318 
" clip-path="url(#pcdf601bcf0)" style="fill: none; stroke: #737373; stroke-opacity: 0.42; stroke-width: 0.7; stroke-linecap: square"/>
   </g>
   <g id="line2d_88">
    <path d="M 115.995924 302.916531 
L 187.949531 323.312488 
" clip-path="url(#pcdf601bcf0)" style="fill: none; stroke: #737373; stroke-opacity: 0.42; stroke-width: 0.7; stroke-linecap: square"/>
   </g>
   <g id="line2d_89">
    <path d="M 112.387113 274.005294 
L 188.791367 309.663458 
" clip-path="url(#pcdf601bcf0)" style="fill: none; stroke: #737373; stroke-opacity: 0.42; stroke-width: 0.7; stroke-linecap: square"/>
   </g>
   <g id="line2d_90">
    <path d="M 117.89717 288.988958 
L 190.577726 319.413732 
" clip-path="url(#pcdf601bcf0)" style="fill: none; stroke: #737373; stroke-opacity: 0.42; stroke-width: 0.7; stroke-linecap: square"/>
   </g>
   <g id="line2d_91">
    <path d="M 117.203446 311.054644 
L 189.412705 312.303922 
" clip-path="url(#pcdf601bcf0)" style="fill: none; stroke: #737373; stroke-opacity: 0.42; stroke-width: 0.7; stroke-linecap: square"/>
   </g>
   <g id="line2d_92">
    <path d="M 116.177417 319.004234 
L 188.687128 325.29763 
" clip-path="url(#pcdf601bcf0)" style="fill: none; stroke: #737373; stroke-opacity: 0.42; stroke-width: 0.7; stroke-linecap: square"/>
   </g>
   <g id="line2d_93">
    <path d="M 110.957337 313.212777 
L 188.737454 328.460243 
" clip-path="url(#pcdf601bcf0)" style="fill: none; stroke: #737373; stroke-opacity: 0.42; stroke-width: 0.7; stroke-linecap: square"/>
   </g>
   <g id="line2d_94">
    <path d="M 113.390406 319.685239 
L 186.454843 327.882765 
" clip-path="url(#pcdf601bcf0)" style="fill: none; stroke: #737373; stroke-opacity: 0.42; stroke-width: 0.7; stroke-linecap: square"/>
   </g>
   <g id="line2d_95">
    <path d="M 109.608511 321.862981 
L 184.012385 329.165939 
" clip-path="url(#pcdf601bcf0)" style="fill: none; stroke: #737373; stroke-opacity: 0.42; stroke-width: 0.7; stroke-linecap: square"/>
   </g>
   <g id="line2d_96">
    <path d="M 110.596518 319.392432 
L 187.642102 328.129153 
" clip-path="url(#pcdf601bcf0)" style="fill: none; stroke: #737373; stroke-opacity: 0.42; stroke-width: 0.7; stroke-linecap: square"/>
   </g>
   <g id="line2d_97">
    <path d="M 115.324897 320.599523 
L 185.655702 329.232042 
" clip-path="url(#pcdf601bcf0)" style="fill: none; stroke: #737373; stroke-opacity: 0.42; stroke-width: 0.7; stroke-linecap: square"/>
   </g>
   <g id="line2d_98">
    <path d="M 115.876761 328.065649 
L 187.390027 328.10079 
" clip-path="url(#pcdf601bcf0)" style="fill: none; stroke: #737373; stroke-opacity: 0.42; stroke-width: 0.7; stroke-linecap: square"/>
   </g>
   <g id="line2d_99">
    <path d="M 117.868659 319.583895 
L 191.368272 326.721147 
" clip-path="url(#pcdf601bcf0)" style="fill: none; stroke: #737373; stroke-opacity: 0.42; stroke-width: 0.7; stroke-linecap: square"/>
   </g>
   <g id="line2d_100">
    <path d="M 112.130461 312.901616 
L 185.82878 325.941092 
" clip-path="url(#pcdf601bcf0)" style="fill: none; stroke: #737373; stroke-opacity: 0.42; stroke-width: 0.7; stroke-linecap: square"/>
   </g>
   <g id="line2d_101">
    <path d="M 112.529599 306.842034 
L 184.258166 322.413278 
" clip-path="url(#pcdf601bcf0)" style="fill: none; stroke: #737373; stroke-opacity: 0.42; stroke-width: 0.7; stroke-linecap: square"/>
   </g>
   <g id="line2d_102">
    <path d="M 113.415756 304.447149 
L 186.253047 328.024644 
" clip-path="url(#pcdf601bcf0)" style="fill: none; stroke: #737373; stroke-opacity: 0.42; stroke-width: 0.7; stroke-linecap: square"/>
   </g>
   <g id="line2d_103">
    <path d="M 110.911129 306.246344 
L 186.362233 333.402475 
" clip-path="url(#pcdf601bcf0)" style="fill: none; stroke: #737373; stroke-opacity: 0.42; stroke-width: 0.7; stroke-linecap: square"/>
   </g>
   <g id="line2d_104">
    <path d="M 110.37861 322.293213 
L 189.655922 331.955769 
" clip-path="url(#pcdf601bcf0)" style="fill: none; stroke: #737373; stroke-opacity: 0.42; stroke-width: 0.7; stroke-linecap: square"/>
   </g>
   <g id="line2d_105">
    <path d="M 113.470744 301.633145 
L 188.718004 323.759893 
" clip-path="url(#pcdf601bcf0)" style="fill: none; stroke: #737373; stroke-opacity: 0.42; stroke-width: 0.7; stroke-linecap: square"/>
   </g>
   <g id="line2d_106">
    <path d="M 111.245914 313.876788 
L 190.746731 324.65983 
" clip-path="url(#pcdf601bcf0)" style="fill: none; stroke: #737373; stroke-opacity: 0.42; stroke-width: 0.7; stroke-linecap: square"/>
   </g>
   <g id="line2d_107">
    <path d="M 115.206545 285.695926 
L 189.677357 341.191458 
" clip-path="url(#pcdf601bcf0)" style="fill: none; stroke: #737373; stroke-opacity: 0.42; stroke-width: 0.7; stroke-linecap: square"/>
   </g>
   <g id="line2d_108">
    <path d="M 113.125987 309.604438 
L 187.370874 329.162057 
" clip-path="url(#pcdf601bcf0)" style="fill: none; stroke: #737373; stroke-opacity: 0.42; stroke-width: 0.7; stroke-linecap: square"/>
   </g>
   <g id="patch_6">
    <path d="M 68.976 349.653913 
L 68.976 203.306087 
" style="fill: none; stroke: #000000; stroke-width: 0.6; stroke-linejoin: miter; stroke-linecap: square"/>
   </g>
   <g id="patch_7">
    <path d="M 68.976 349.653913 
L 232.92 349.653913 
" style="fill: none; stroke: #000000; stroke-width: 0.6; stroke-linejoin: miter; stroke-linecap: square"/>
   </g>
   <g id="PathCollection_5">
    <g clip-path="url(#pcdf601bcf0)">
     <use xlink:href="#m77e425b80b" x="116.137825" y="306.580133" style="fill: #1e90ff; fill-opacity: 0.45"/>
     <use xlink:href="#m77e425b80b" x="113.141427" y="322.243709" style="fill: #1e90ff; fill-opacity: 0.45"/>
     <use xlink:href="#m77e425b80b" x="116.894726" y="312.703855" style="fill: #1e90ff; fill-opacity: 0.45"/>
     <use xlink:href="#m77e425b80b" x="115.452944" y="312.209375" style="fill: #1e90ff; fill-opacity: 0.45"/>
     <use xlink:href="#m77e425b80b" x="110.058972" y="317.966517" style="fill: #1e90ff; fill-opacity: 0.45"/>
     <use xlink:href="#m77e425b80b" x="117.941205" y="319.81501" style="fill: #1e90ff; fill-opacity: 0.45"/>
     <use xlink:href="#m77e425b80b" x="116.023216" y="318.344985" style="fill: #1e90ff; fill-opacity: 0.45"/>
     <use xlink:href="#m77e425b80b" x="116.246101" y="297.511933" style="fill: #1e90ff; fill-opacity: 0.45"/>
     <use xlink:href="#m77e425b80b" x="110.362443" y="311.443408" style="fill: #1e90ff; fill-opacity: 0.45"/>
     <use xlink:href="#m77e425b80b" x="113.244331" y="308.190702" style="fill: #1e90ff; fill-opacity: 0.45"/>
     <use xlink:href="#m77e425b80b" x="112.532624" y="293.258367" style="fill: #1e90ff; fill-opacity: 0.45"/>
     <use xlink:href="#m77e425b80b" x="117.504303" y="322.277071" style="fill: #1e90ff; fill-opacity: 0.45"/>
     <use xlink:href="#m77e425b80b" x="114.974499" y="314.862724" style="fill: #1e90ff; fill-opacity: 0.45"/>
     <use xlink:href="#m77e425b80b" x="116.574263" y="299.525142" style="fill: #1e90ff; fill-opacity: 0.45"/>
     <use xlink:href="#m77e425b80b" x="113.181987" y="268.702046" style="fill: #1e90ff; fill-opacity: 0.45"/>
     <use xlink:href="#m77e425b80b" x="111.24886" y="264.204393" style="fill: #1e90ff; fill-opacity: 0.45"/>
     <use xlink:href="#m77e425b80b" x="114.176119" y="287.374047" style="fill: #1e90ff; fill-opacity: 0.45"/>
     <use xlink:href="#m77e425b80b" x="109.787479" y="294.469646" style="fill: #1e90ff; fill-opacity: 0.45"/>
     <use xlink:href="#m77e425b80b" x="116.617809" y="209.958261" style="fill: #1e90ff; fill-opacity: 0.45"/>
     <use xlink:href="#m77e425b80b" x="114.865396" y="331.71257" style="fill: #1e90ff; fill-opacity: 0.45"/>
     <use xlink:href="#m77e425b80b" x="115.995924" y="302.916531" style="fill: #1e90ff; fill-opacity: 0.45"/>
     <use xlink:href="#m77e425b80b" x="112.387113" y="274.005294" style="fill: #1e90ff; fill-opacity: 0.45"/>
     <use xlink:href="#m77e425b80b" x="117.89717" y="288.988958" style="fill: #1e90ff; fill-opacity: 0.45"/>
     <use xlink:href="#m77e425b80b" x="117.203446" y="311.054644" style="fill: #1e90ff; fill-opacity: 0.45"/>
     <use xlink:href="#m77e425b80b" x="116.177417" y="319.004234" style="fill: #1e90ff; fill-opacity: 0.45"/>
     <use xlink:href="#m77e425b80b" x="110.957337" y="313.212777" style="fill: #1e90ff; fill-opacity: 0.45"/>
     <use xlink:href="#m77e425b80b" x="113.390406" y="319.685239" style="fill: #1e90ff; fill-opacity: 0.45"/>
     <use xlink:href="#m77e425b80b" x="109.608511" y="321.862981" style="fill: #1e90ff; fill-opacity: 0.45"/>
     <use xlink:href="#m77e425b80b" x="110.596518" y="319.392432" style="fill: #1e90ff; fill-opacity: 0.45"/>
     <use xlink:href="#m77e425b80b" x="115.324897" y="320.599523" style="fill: #1e90ff; fill-opacity: 0.45"/>
     <use xlink:href="#m77e425b80b" x="115.876761" y="328.065649" style="fill: #1e90ff; fill-opacity: 0.45"/>
     <use xlink:href="#m77e425b80b" x="117.868659" y="319.583895" style="fill: #1e90ff; fill-opacity: 0.45"/>
     <use xlink:href="#m77e425b80b" x="112.130461" y="312.901616" style="fill: #1e90ff; fill-opacity: 0.45"/>
     <use xlink:href="#m77e425b80b" x="112.529599" y="306.842034" style="fill: #1e90ff; fill-opacity: 0.45"/>
     <use xlink:href="#m77e425b80b" x="113.415756" y="304.447149" style="fill: #1e90ff; fill-opacity: 0.45"/>
     <use xlink:href="#m77e425b80b" x="110.911129" y="306.246344" style="fill: #1e90ff; fill-opacity: 0.45"/>
     <use xlink:href="#m77e425b80b" x="110.37861" y="322.293213" style="fill: #1e90ff; fill-opacity: 0.45"/>
     <use xlink:href="#m77e425b80b" x="113.470744" y="301.633145" style="fill: #1e90ff; fill-opacity: 0.45"/>
     <use xlink:href="#m77e425b80b" x="111.245914" y="313.876788" style="fill: #1e90ff; fill-opacity: 0.45"/>
     <use xlink:href="#m77e425b80b" x="115.206545" y="285.695926" style="fill: #1e90ff; fill-opacity: 0.45"/>
     <use xlink:href="#m77e425b80b" x="113.125987" y="309.604438" style="fill: #1e90ff; fill-opacity: 0.45"/>
    </g>
   </g>
   <g id="PathCollection_6">
    <g clip-path="url(#pcdf601bcf0)">
     <use xlink:href="#m67ccaa2027" x="191.182942" y="323.486546" style="fill: #dc143c; fill-opacity: 0.45"/>
     <use xlink:href="#m67ccaa2027" x="189.998851" y="328.308467" style="fill: #dc143c; fill-opacity: 0.45"/>
     <use xlink:href="#m67ccaa2027" x="186.530107" y="320.983779" style="fill: #dc143c; fill-opacity: 0.45"/>
     <use xlink:href="#m67ccaa2027" x="191.1792" y="326.723243" style="fill: #dc143c; fill-opacity: 0.45"/>
     <use xlink:href="#m67ccaa2027" x="190.933325" y="325.752642" style="fill: #dc143c; fill-opacity: 0.45"/>
     <use xlink:href="#m67ccaa2027" x="187.201787" y="320.809428" style="fill: #dc143c; fill-opacity: 0.45"/>
     <use xlink:href="#m67ccaa2027" x="186.315145" y="326.428755" style="fill: #dc143c; fill-opacity: 0.45"/>
     <use xlink:href="#m67ccaa2027" x="189.839948" y="321.538428" style="fill: #dc143c; fill-opacity: 0.45"/>
     <use xlink:href="#m67ccaa2027" x="184.986523" y="324.980229" style="fill: #dc143c; fill-opacity: 0.45"/>
     <use xlink:href="#m67ccaa2027" x="185.524459" y="324.08214" style="fill: #dc143c; fill-opacity: 0.45"/>
     <use xlink:href="#m67ccaa2027" x="183.802636" y="325.52118" style="fill: #dc143c; fill-opacity: 0.45"/>
     <use xlink:href="#m67ccaa2027" x="190.773793" y="328.73148" style="fill: #dc143c; fill-opacity: 0.45"/>
     <use xlink:href="#m67ccaa2027" x="189.682162" y="326.633745" style="fill: #dc143c; fill-opacity: 0.45"/>
     <use xlink:href="#m67ccaa2027" x="190.042671" y="320.026461" style="fill: #dc143c; fill-opacity: 0.45"/>
     <use xlink:href="#m67ccaa2027" x="190.718391" y="319.406485" style="fill: #dc143c; fill-opacity: 0.45"/>
     <use xlink:href="#m67ccaa2027" x="187.840608" y="324.912479" style="fill: #dc143c; fill-opacity: 0.45"/>
     <use xlink:href="#m67ccaa2027" x="188.822711" y="343.001739" style="fill: #dc143c; fill-opacity: 0.45"/>
     <use xlink:href="#m67ccaa2027" x="184.986921" y="321.963501" style="fill: #dc143c; fill-opacity: 0.45"/>
     <use xlink:href="#m67ccaa2027" x="184.760974" y="293.032854" style="fill: #dc143c; fill-opacity: 0.45"/>
     <use xlink:href="#m67ccaa2027" x="189.713927" y="338.801318" style="fill: #dc143c; fill-opacity: 0.45"/>
     <use xlink:href="#m67ccaa2027" x="187.949531" y="323.312488" style="fill: #dc143c; fill-opacity: 0.45"/>
     <use xlink:href="#m67ccaa2027" x="188.791367" y="309.663458" style="fill: #dc143c; fill-opacity: 0.45"/>
     <use xlink:href="#m67ccaa2027" x="190.577726" y="319.413732" style="fill: #dc143c; fill-opacity: 0.45"/>
     <use xlink:href="#m67ccaa2027" x="189.412705" y="312.303922" style="fill: #dc143c; fill-opacity: 0.45"/>
     <use xlink:href="#m67ccaa2027" x="188.687128" y="325.29763" style="fill: #dc143c; fill-opacity: 0.45"/>
     <use xlink:href="#m67ccaa2027" x="188.737454" y="328.460243" style="fill: #dc143c; fill-opacity: 0.45"/>
     <use xlink:href="#m67ccaa2027" x="186.454843" y="327.882765" style="fill: #dc143c; fill-opacity: 0.45"/>
     <use xlink:href="#m67ccaa2027" x="184.012385" y="329.165939" style="fill: #dc143c; fill-opacity: 0.45"/>
     <use xlink:href="#m67ccaa2027" x="187.642102" y="328.129153" style="fill: #dc143c; fill-opacity: 0.45"/>
     <use xlink:href="#m67ccaa2027" x="185.655702" y="329.232042" style="fill: #dc143c; fill-opacity: 0.45"/>
     <use xlink:href="#m67ccaa2027" x="187.390027" y="328.10079" style="fill: #dc143c; fill-opacity: 0.45"/>
     <use xlink:href="#m67ccaa2027" x="191.368272" y="326.721147" style="fill: #dc143c; fill-opacity: 0.45"/>
     <use xlink:href="#m67ccaa2027" x="185.82878" y="325.941092" style="fill: #dc143c; fill-opacity: 0.45"/>
     <use xlink:href="#m67ccaa2027" x="184.258166" y="322.413278" style="fill: #dc143c; fill-opacity: 0.45"/>
     <use xlink:href="#m67ccaa2027" x="186.253047" y="328.024644" style="fill: #dc143c; fill-opacity: 0.45"/>
     <use xlink:href="#m67ccaa2027" x="186.362233" y="333.402475" style="fill: #dc143c; fill-opacity: 0.45"/>
     <use xlink:href="#m67ccaa2027" x="189.655922" y="331.955769" style="fill: #dc143c; fill-opacity: 0.45"/>
     <use xlink:href="#m67ccaa2027" x="188.718004" y="323.759893" style="fill: #dc143c; fill-opacity: 0.45"/>
     <use xlink:href="#m67ccaa2027" x="190.746731" y="324.65983" style="fill: #dc143c; fill-opacity: 0.45"/>
     <use xlink:href="#m67ccaa2027" x="189.677357" y="341.191458" style="fill: #dc143c; fill-opacity: 0.45"/>
     <use xlink:href="#m67ccaa2027" x="187.370874" y="329.162057" style="fill: #dc143c; fill-opacity: 0.45"/>
    </g>
   </g>
   <g id="text_17">
    <text style="font-weight: 700; font-size: 10px; font-family: 'Helvetica', 'Arial', 'DejaVu Sans', sans-serif; text-anchor: start" x="32.90832" y="205.050611" transform="rotate(-0 32.90832 205.050611)">B</text>
   </g>
   <g id="line2d_109">
    <path d="M 113.688 319.392432 
L 113.688 299.525142 
" clip-path="url(#pcdf601bcf0)" style="fill: none; stroke: #1e90ff; stroke-width: 2.2; stroke-linecap: round"/>
   </g>
   <g id="line2d_110">
    <path d="M 188.208 328.308467 
L 188.208 322.413278 
" clip-path="url(#pcdf601bcf0)" style="fill: none; stroke: #dc143c; stroke-width: 2.2; stroke-linecap: round"/>
   </g>
   <g id="PathCollection_7">
    <g clip-path="url(#pcdf601bcf0)">
     <use xlink:href="#m53e9c15e33" x="113.688" y="311.443408" style="fill: #ffffff; stroke: #1e90ff; stroke-width: 0.8"/>
    </g>
   </g>
   <g id="PathCollection_8">
    <g clip-path="url(#pcdf601bcf0)">
     <use xlink:href="#m01bbbe34d7" x="188.208" y="325.752642" style="fill: #ffffff; stroke: #dc143c; stroke-width: 0.8"/>
    </g>
   </g>
  </g>
  <g id="text_18">
   <text style="font-size: 9px; font-family: 'Helvetica', 'Arial', 'DejaVu Sans', sans-serif" transform="translate(14.038594 243.368835) rotate(-90)">Improvement over baseline</text>
  </g>
 </g>
 <defs>
  <clipPath id="p3b41b83f83">
   <rect x="68.976" y="13.053913" width="163.944" height="146.347826"/>
  </clipPath>
  <clipPath id="pcdf601bcf0">
   <rect x="68.976" y="203.306087" width="163.944" height="146.347826"/>
  </clipPath>
 </defs>
 <defs>
  <pattern id="hd2bdf66020" patternUnits="userSpaceOnUse" x="0" y="0" width="72" height="72">
   <rect x="0" y="0" width="73" height="73" fill="#dc143c"/>
   <path d="M -36 36 
L 36 -36 
M -33 39 
L 39 -33 
M -30 42 
L 42 -30 
M -27 45 
L 45 -27 
M -24 48 
L 48 -24 
M -21 51 
L 51 -21 
M -18 54 
L 54 -18 
M -15 57 
L 57 -15 
M -12 60 
L 60 -12 
M -9 63 
L 63 -9 
M -6 66 
L 66 -6 
M -3 69 
L 69 -3 
M 0 72 
L 72 0 
M 3 75 
L 75 3 
M 6 78 
L 78 6 
M 9 81 
L 81 9 
M 12 84 
L 84 12 
M 15 87 
L 87 15 
M 18 90 
L 90 18 
M 21 93 
L 93 21 
M 24 96 
L 96 24 
M 27 99 
L 99 27 
M 30 102 
L 102 30 
M 33 105 
L 105 33 
M 36 108 
L 108 36 
" style="fill: #dc143c; stroke: #dc143c; stroke-width: 1.0; stroke-linecap: butt; stroke-linejoin: miter; stroke-opacity: 0.45"/>
  </pattern>
 </defs>
</svg>
